<svg xmlns="http://www.w3.org/2000/svg" xmlns:xlink="http://www.w3.org/1999/xlink">>

<!-- ===== 0. GLOBAL ===== -->	

	<!-- logo -->
	<symbol id="logo" viewBox="0 0 450 124" fill="none">
		 <path d="M281.984 2.5H368.801V121.5H281.984V2.5Z" stroke="#1B5EBD" stroke-width="5"></path> 
		 <rect x="328.652" y="30.2979" width="79.8876" height="70.03" fill="white"></rect> 
		 <rect x="225.506" y="30.2979" width="79.8876" height="70.03" fill="white"></rect> 
		 <path d="M5.06 47.7296H21.45C26.73 47.7296 30.855 48.8662 33.825 51.1396C36.795 53.4129 38.28 56.7679 38.28 61.2046C38.28 65.6412 36.795 68.9229 33.825 71.0496C30.8917 73.1762 26.7667 74.2396 21.45 74.2396H17.875V84.7446C17.875 85.1479 17.7283 85.4962 17.435 85.7896C17.1417 86.0829 16.7933 86.2296 16.39 86.2296H5.06C4.65667 86.2296 4.30833 86.0829 4.015 85.7896C3.72167 85.4962 3.575 85.1479 3.575 84.7446V49.2146C3.575 48.8112 3.72167 48.4629 4.015 48.1696C4.30833 47.8762 4.65667 47.7296 5.06 47.7296ZM17.6 57.9596V64.0646H21.45C22.11 64.0646 22.6967 63.8262 23.21 63.3496C23.7233 62.8362 23.98 62.1212 23.98 61.2046C23.98 60.2879 23.7783 59.5179 23.375 58.8946C22.9717 58.2712 22.33 57.9596 21.45 57.9596H17.6ZM54.9901 47.7296H66.9251C68.2451 47.7296 69.0701 48.3346 69.4001 49.5446L81.6651 84.6346C81.7018 84.7446 81.7201 84.9279 81.7201 85.1846C81.7201 85.4046 81.5918 85.6429 81.3351 85.8996C81.1151 86.1196 80.8401 86.2296 80.5101 86.2296H70.3351C69.2351 86.2296 68.5201 85.7712 68.1901 84.8546L66.8701 81.2246H55.0451L53.7251 84.8546C53.3951 85.7712 52.6801 86.2296 51.5801 86.2296H41.4051C41.0751 86.2296 40.7818 86.1196 40.5251 85.8996C40.3051 85.6429 40.1951 85.4046 40.1951 85.1846C40.1951 84.9279 40.2135 84.7446 40.2501 84.6346L52.5151 49.5446C52.8451 48.3346 53.6701 47.7296 54.9901 47.7296ZM57.8501 70.4996H64.0651L60.9301 60.2696L57.8501 70.4996ZM99.3287 62.3596V71.5996C99.3287 74.5696 100.685 76.0546 103.399 76.0546C105.489 76.0546 106.864 75.0646 107.524 73.0846C107.707 72.4612 107.927 72.0396 108.184 71.8196C108.477 71.5996 108.935 71.4896 109.559 71.4896H120.779C121.109 71.4896 121.384 71.6179 121.604 71.8746C121.86 72.0946 121.989 72.3696 121.989 72.6996C121.989 75.8896 121.072 78.5662 119.239 80.7296C115.865 84.7629 110.604 86.7796 103.454 86.7796C97.8437 86.7796 93.3704 85.5512 90.0337 83.0946C86.697 80.6012 85.0287 76.7879 85.0287 71.6546V62.3046C85.0287 57.2812 86.7337 53.5046 90.1437 50.9746C93.5537 48.4446 97.9904 47.1796 103.454 47.1796C110.604 47.1796 115.865 49.1962 119.239 53.2296C121.072 55.3929 121.989 58.0696 121.989 61.2596C121.989 61.5896 121.86 61.8829 121.604 62.1396C121.384 62.3596 121.109 62.4696 120.779 62.4696H109.559C108.972 62.4696 108.532 62.3596 108.239 62.1396C107.982 61.9196 107.744 61.4979 107.524 60.8746C106.827 58.8946 105.452 57.9046 103.399 57.9046C100.685 57.9046 99.3287 59.3896 99.3287 62.3596ZM128.703 47.7296H162.143C162.546 47.7296 162.894 47.8762 163.188 48.1696C163.481 48.4629 163.628 48.8112 163.628 49.2146V84.7446C163.628 85.1479 163.481 85.4962 163.188 85.7896C162.894 86.0829 162.546 86.2296 162.143 86.2296H151.363C150.959 86.2296 150.611 86.0829 150.318 85.7896C150.024 85.4962 149.878 85.1479 149.878 84.7446V59.8296H140.968V84.7446C140.968 85.1479 140.821 85.4962 140.528 85.7896C140.234 86.0829 139.886 86.2296 139.483 86.2296H128.703C128.299 86.2296 127.951 86.1012 127.658 85.8446C127.364 85.5512 127.218 85.1846 127.218 84.7446V49.2146C127.218 48.8112 127.364 48.4629 127.658 48.1696C127.951 47.8762 128.299 47.7296 128.703 47.7296ZM172.262 47.7296H182.217C182.62 47.7296 182.969 47.8762 183.262 48.1696C183.555 48.4629 183.702 48.8112 183.702 49.2146V64.2296L192.997 48.9946C193.474 48.1512 194.225 47.7296 195.252 47.7296H203.942C204.345 47.7296 204.694 47.8762 204.987 48.1696C205.28 48.4629 205.427 48.8112 205.427 49.2146V84.7446C205.427 85.1479 205.28 85.4962 204.987 85.7896C204.694 86.0829 204.345 86.2296 203.942 86.2296H193.987C193.584 86.2296 193.235 86.0829 192.942 85.7896C192.649 85.4962 192.502 85.1479 192.502 84.7446V70.9396L183.207 84.9646C182.657 85.8079 181.905 86.2296 180.952 86.2296H172.262C171.859 86.2296 171.51 86.0829 171.217 85.7896C170.924 85.4962 170.777 85.1479 170.777 84.7446V49.2146C170.777 48.8112 170.924 48.4629 171.217 48.1696C171.51 47.8762 171.859 47.7296 172.262 47.7296ZM211.629 86.7796C211.226 86.7796 210.859 86.6329 210.529 86.3396C210.236 86.0462 210.089 85.6979 210.089 85.2946V77.2096C210.089 76.8062 210.236 76.4579 210.529 76.1646C210.823 75.8712 211.171 75.7246 211.574 75.7246C214.288 75.7246 215.644 74.3129 215.644 71.4896V49.2146C215.644 48.8112 215.791 48.4629 216.084 48.1696C216.378 47.8762 216.726 47.7296 217.129 47.7296H248.369C248.773 47.7296 249.121 47.8762 249.414 48.1696C249.708 48.4629 249.854 48.8112 249.854 49.2146V84.7446C249.854 85.1479 249.708 85.4962 249.414 85.7896C249.121 86.0829 248.773 86.2296 248.369 86.2296H237.589C237.186 86.2296 236.838 86.0829 236.544 85.7896C236.251 85.4962 236.104 85.1479 236.104 84.7446V59.8296H229.394V71.3246C229.394 76.4579 227.799 80.3262 224.609 82.9296C221.419 85.4962 217.093 86.7796 211.629 86.7796Z" fill="#1B5EBD"></path> 
		 <path d="M286.905 74.9546H302.14C302.544 74.9546 302.892 75.1012 303.185 75.3946C303.479 75.6879 303.625 76.0362 303.625 76.4396V84.7446C303.625 85.1479 303.479 85.4962 303.185 85.7896C302.892 86.0829 302.544 86.2296 302.14 86.2296H274.42C274.017 86.2296 273.669 86.0829 273.375 85.7896C273.082 85.4962 272.935 85.1479 272.935 84.7446V49.2146C272.935 48.8112 273.082 48.4629 273.375 48.1696C273.669 47.8762 274.017 47.7296 274.42 47.7296H285.42C285.824 47.7296 286.172 47.8762 286.465 48.1696C286.759 48.4629 286.905 48.8112 286.905 49.2146V74.9546ZM331.424 47.7296H342.204C342.608 47.7296 342.956 47.8762 343.249 48.1696C343.543 48.4629 343.689 48.8112 343.689 49.2146V71.3246C343.689 76.4579 342.094 80.3262 338.904 82.9296C335.714 85.4962 331.369 86.7796 325.869 86.7796C320.406 86.7796 316.061 85.4962 312.834 82.9296C309.644 80.3629 308.049 76.4946 308.049 71.3246V49.2146C308.049 48.8112 308.196 48.4629 308.489 48.1696C308.783 47.8762 309.131 47.7296 309.534 47.7296H320.314C320.718 47.7296 321.066 47.8762 321.359 48.1696C321.653 48.4629 321.799 48.8112 321.799 49.2146V71.4896C321.799 74.3129 323.156 75.7246 325.869 75.7246C328.583 75.7246 329.939 74.3129 329.939 71.4896V49.2146C329.939 48.8112 330.086 48.4629 330.379 48.1696C330.673 47.8762 331.021 47.7296 331.424 47.7296ZM387.734 84.4146C387.844 84.5979 387.899 84.8362 387.899 85.1296C387.899 85.3862 387.771 85.6429 387.514 85.8996C387.294 86.1196 387.019 86.2296 386.689 86.2296H374.314C373.324 86.2296 372.572 85.8079 372.059 84.9646L367.274 77.5946L362.709 84.9646C362.196 85.8079 361.444 86.2296 360.454 86.2296H348.464C348.134 86.2296 347.841 86.1196 347.584 85.8996C347.364 85.6429 347.254 85.3862 347.254 85.1296C347.254 84.8362 347.309 84.5979 347.419 84.4146L358.969 66.5396L348.574 49.5446C348.464 49.3246 348.409 49.0862 348.409 48.8296C348.409 48.5729 348.519 48.3346 348.739 48.1146C348.996 47.8579 349.289 47.7296 349.619 47.7296H361.554C362.581 47.7296 363.351 48.1879 363.864 49.1046L367.714 55.8146L371.894 49.1046C372.407 48.1879 373.177 47.7296 374.204 47.7296H385.589C385.919 47.7296 386.194 47.8579 386.414 48.1146C386.671 48.3346 386.799 48.5912 386.799 48.8846C386.799 49.1412 386.744 49.3612 386.634 49.5446L376.019 66.3746L387.734 84.4146Z" fill="black"></path>
	</symbol>

	<!-- nav -->
	<symbol id="nav" viewBox="0 0 512 512">
		<path d="m187.644531 0c-103.46875 0-187.644531 84.175781-187.644531 187.644531 0 47.53125 29.949219 114.6875 89.019531 199.605469 43.175781 62.074219 85.640625 110.109375 87.429688 112.125l11.195312 12.625 11.199219-12.625c1.785156-2.015625 44.25-50.050781 87.429688-112.125 59.066406-84.917969 89.019531-152.074219 89.019531-199.605469 0-103.46875-84.179688-187.644531-187.648438-187.644531zm74.21875 369.914062c-29.183593 41.984376-58.679687 78.117188-74.21875 96.550782-15.5-18.382813-44.886719-54.378906-74.050781-96.308594-54.730469-78.679688-83.660156-141.792969-83.660156-182.511719 0-86.960937 70.75-157.710937 157.710937-157.710937 86.964844 0 157.710938 70.75 157.710938 157.710937 0 40.675781-28.871094 103.703125-83.492188 182.269531zm0 0" fill="#1b5ebd"></path> 
		<path d="m187.644531 69.351562c-61.066406 0-110.746093 49.679688-110.746093 110.746094s49.679687 110.75 110.746093 110.75c61.070313 0 110.75-49.683594 110.75-110.75s-49.679687-110.746094-110.75-110.746094zm0 191.5625c-44.558593 0-80.8125-36.253906-80.8125-80.816406 0-44.558594 36.253907-80.8125 80.8125-80.8125 44.5625 0 80.816407 36.253906 80.816407 80.8125 0 44.5625-36.253907 80.816406-80.816407 80.816406zm0 0" fill="#1b5ebd"></path>
	</symbol>

	<!-- phone -->
	<symbol id="phone" viewBox="0 0 682 682.66651">
		<path d="m75.71875 640c-18.734375 0-36.972656-6.992188-50.894531-19.691406-15.566407-14.195313-24.492188-34.425782-24.492188-55.488282v-100.933593c0-38.304688 28.585938-70.414063 66.492188-74.683594 22.308593-2.515625 44.464843-7.109375 65.863281-13.652344 26.78125-8.191406 55.628906-1.082031 75.273438 18.558594l40.898437 40.894531c78.324219-42.851562 143.636719-108.164062 186.484375-186.472656l-40.902344-40.898438c-19.640625-19.644531-26.75-48.492187-18.554687-75.277343 6.542969-21.398438 11.136719-43.554688 13.652343-65.859375 4.265626-37.910156 36.375-66.496094 74.679688-66.496094h100.929688c21.066406 0 41.296874 8.925781 55.492187 24.492188 14.257813 15.625 21.316406 36.691406 19.375 57.789062-6.664063 72.421875-25.859375 142.347656-57.054687 207.839844-30.324219 63.671875-71.074219 121.328125-121.125 171.378906-50.046876 50.046875-107.707032 90.804688-171.378907 121.125-65.496093 31.191406-135.421875 50.390625-207.84375 57.058594-2.300781.214844-4.597656.316406-6.894531.316406zm79.222656-217.785156c-2.53125 0-5.105468.378906-7.625 1.148437-24.335937 7.445313-49.53125 12.667969-74.894531 15.527344-12.589844 1.417969-22.089844 12.164063-22.089844 24.996094v100.933593c0 7.148438 2.910157 13.734376 8.191407 18.546876 5.339843 4.878906 12.269531 7.195312 19.503906 6.523437 271.769531-25.011719 487.183594-240.429687 512.199218-512.195313.667969-7.234374-1.652343-14.164062-6.523437-19.507812-4.820313-5.277344-11.40625-8.1875-18.554687-8.1875h-100.929688c-12.832031 0-23.578125 9.496094-25 22.089844-2.855469 25.363281-8.078125 50.558594-15.519531 74.894531-2.773438 9.0625-.441407 18.753906 6.097656 25.292969l66.589844 66.589844-8.007813 16.097656c-49.929687 100.355468-132.714844 183.128906-233.089844 233.070312l-16.097656 8.015625-66.585937-66.589843c-4.714844-4.714844-11.074219-7.246094-17.664063-7.246094zm0 0" fill="#1b5ebd"></path>
	</symbol>

	<!-- mail -->
	<symbol id="mail" viewBox="0 0 512 512">
		<path d="M467,76H45C20.137,76,0,96.262,0,121v270c0,24.885,20.285,45,45,45h422c24.655,0,45-20.03,45-45V121 C512,96.306,491.943,76,467,76z M460.698,106c-9.194,9.145-167.415,166.533-172.878,171.967c-8.5,8.5-19.8,13.18-31.82,13.18 s-23.32-4.681-31.848-13.208C220.478,274.284,64.003,118.634,51.302,106H460.698z M30,384.894V127.125L159.638,256.08L30,384.894z M51.321,406l129.587-128.763l22.059,21.943c14.166,14.166,33,21.967,53.033,21.967c20.033,0,38.867-7.801,53.005-21.939 l22.087-21.971L460.679,406H51.321z M482,384.894L352.362,256.08L482,127.125V384.894z" fill="#1b5ebd"></path>
	</symbol>

	<!-- whatsapp-->
	<symbol id="whatsapp" viewBox="0 0 682 682.66669">
		<path d="m544.386719 93.007812c-59.875-59.945312-139.503907-92.9726558-224.335938-93.007812-174.804687 0-317.070312 142.261719-317.140625 317.113281-.023437 55.894531 14.578125 110.457031 42.332032 158.550781l-44.992188 164.335938 168.121094-44.101562c46.324218 25.269531 98.476562 38.585937 151.550781 38.601562h.132813c174.785156 0 317.066406-142.273438 317.132812-317.132812.035156-84.742188-32.921875-164.417969-92.800781-224.359376zm-224.335938 487.933594h-.109375c-47.296875-.019531-93.683594-12.730468-134.160156-36.742187l-9.621094-5.714844-99.765625 26.171875 26.628907-97.269531-6.269532-9.972657c-26.386718-41.96875-40.320312-90.476562-40.296875-140.28125.054688-145.332031 118.304688-263.570312 263.699219-263.570312 70.40625.023438 136.589844 27.476562 186.355469 77.300781s77.15625 116.050781 77.132812 186.484375c-.0625 145.34375-118.304687 263.59375-263.59375 263.59375zm144.585938-197.417968c-7.921875-3.96875-46.882813-23.132813-54.148438-25.78125-7.257812-2.644532-12.546875-3.960938-17.824219 3.96875-5.285156 7.929687-20.46875 25.78125-25.09375 31.066406-4.625 5.289062-9.242187 5.953125-17.167968 1.984375-7.925782-3.964844-33.457032-12.335938-63.726563-39.332031-23.554687-21.011719-39.457031-46.960938-44.082031-54.890626-4.617188-7.9375-.039062-11.8125 3.476562-16.171874 8.578126-10.652344 17.167969-21.820313 19.808594-27.105469 2.644532-5.289063 1.320313-9.917969-.664062-13.882813-1.976563-3.964844-17.824219-42.96875-24.425782-58.839844-6.4375-15.445312-12.964843-13.359374-17.832031-13.601562-4.617187-.230469-9.902343-.277344-15.1875-.277344-5.28125 0-13.867187 1.980469-21.132812 9.917969-7.261719 7.933594-27.730469 27.101563-27.730469 66.105469s28.394531 76.683594 32.355469 81.972656c3.960937 5.289062 55.878906 85.328125 135.367187 119.648438 18.90625 8.171874 33.664063 13.042968 45.175782 16.695312 18.984374 6.03125 36.253906 5.179688 49.910156 3.140625 15.226562-2.277344 46.878906-19.171875 53.488281-37.679687 6.601563-18.511719 6.601563-34.375 4.617187-37.683594-1.976562-3.304688-7.261718-5.285156-15.183593-9.253906zm0 0" fill-rule="evenodd" fill="#1b5ebd"></path>
	</symbol>

	<!-- telegramm-->
	<symbol id="telegramm" viewBox="0 0 512.00011 512">
		<path d="m504.09375 11.859375c-6.253906-7.648437-15.621094-11.859375-26.378906-11.859375-5.847656 0-12.042969 1.230469-18.410156 3.664062l-433.398438 165.441407c-23 8.777343-26.097656 21.949219-25.8984375 29.019531s4.0390625 20.046875 27.4999995 27.511719c.140626.042969.28125.085937.421876.125l89.898437 25.726562 48.617187 139.023438c6.628907 18.953125 21.507813 30.726562 38.835938 30.726562 10.925781 0 21.671875-4.578125 31.078125-13.234375l55.605469-51.199218 80.652344 64.941406c.007812.007812.019531.011718.027343.019531l.765625.617187c.070313.054688.144532.113282.214844.167969 8.964844 6.953125 18.75 10.625 28.308594 10.628907h.003906c18.675781 0 33.546875-13.824219 37.878906-35.214844l71.011719-350.640625c2.851563-14.074219.460937-26.667969-6.734375-35.464844zm-356.191406 234.742187 173.441406-88.605468-107.996094 114.753906c-1.769531 1.878906-3.023437 4.179688-3.640625 6.683594l-20.824219 84.351562zm68.132812 139.332032c-.71875.660156-1.441406 1.25-2.164062 1.792968l19.320312-78.25 35.144532 28.300782zm265.390625-344.566406-71.011719 350.644531c-.683593 3.355469-2.867187 11.164062-8.480468 11.164062-2.773438 0-6.257813-1.511719-9.824219-4.257812l-91.390625-73.585938c-.011719-.011719-.027344-.023437-.042969-.03125l-54.378906-43.789062 156.175781-165.949219c5-5.3125 5.453125-13.449219 1.074219-19.285156-4.382813-5.835938-12.324219-7.671875-18.820313-4.351563l-256.867187 131.226563-91.121094-26.070313 433.265625-165.390625c3.660156-1.398437 6.214844-1.691406 7.710938-1.691406.917968 0 2.550781.109375 3.15625.855469.796875.972656 1.8125 4.289062.554687 10.511719zm0 0" fill="#1b5ebd"></path>
	</symbol>

	<!-- telegramm-mobile-->
	<symbol id="telegramm-mobile" viewBox="0 0 60 60">
		<path style="fill:#1b5ebd;" d="M30 0C13.4 0 0 13.4 0 30s13.4 30 30 30 30-13.4 30-30S46.6 0 30 0zm16.9 13.9l-6.7 31.5c-.1.6-.8.9-1.4.6l-10.3-6.9-5.5 5.2c-.5.4-1.2.2-1.4-.4L18 32.7l-9.5-3.9c-.7-.3-.7-1.5 0-1.8l37.1-14.1c.7-.2 1.4.3 1.3 1z"></path>
		<path style="fill:#1b5ebd;" d="M22.7 40.6l.6-5.8 16.8-16.3-20.2 13.3"></path>
	</symbol>

	<!-- facebook -->
	<symbol id="facebook" viewBox="452.708 123.327 143.42 253.346">
		<path d="M141.858 63.293C116.298 67.2725 100.015 81.8166 93.9567 106.073C91.9213 114.268 91.306 119.906 91.022 133.692L90.738 146.862H81.6973C73.9347 146.862 72.3727 147.005 70.7633 147.763C68.586 148.757 67.024 150.321 66.314 152.216C65.9827 153.116 65.7933 161.454 65.7933 176.756C65.7933 201.96 65.6987 201.202 68.4913 203.807C70.6687 205.844 71.8993 206.081 81.65 206.081H90.88L90.9747 258.052C91.1167 316.228 90.8327 311.633 94.5247 314.428L96.2287 315.754L123.493 315.896C138.497 315.991 151.467 315.896 152.319 315.754C154.212 315.423 157.099 312.959 157.904 310.922C158.472 309.643 158.567 300.026 158.567 257.72V206.081H176.411C193.546 206.081 194.303 206.034 196.291 205.086C199.889 203.333 200.125 202.528 204.906 178.604C207.273 166.76 209.213 156.243 209.213 155.295C209.213 151.837 207.509 149.279 204.243 147.763C202.492 146.957 200.741 146.862 180.482 146.862H158.567V135.966C158.567 125.828 158.614 125.023 159.466 124.17C161.359 122.275 163.3 122.085 183.748 121.801L203.439 121.517L205.474 120.096C209.308 117.395 209.213 117.869 209.213 96.266C209.213 78.074 209.166 77.0791 208.267 75.3262C206.941 72.6732 204.669 71.3941 198.09 69.4517C187.298 66.2776 177.689 64.2879 167.087 63.0087C161.501 62.3455 146.828 62.4876 141.858 63.293ZM170.873 80.5849C177.263 81.5797 191.558 84.9434 192.268 85.654C192.505 85.8909 192.599 90.202 192.552 95.2711L192.41 104.462L177.263 104.746C160.555 105.03 159.229 105.22 153.029 108.252C147.869 110.81 144.698 114.837 142.615 121.517C141.858 124.028 141.763 126.16 141.763 140.467C141.763 149.326 141.905 157.143 142.142 157.901C142.71 159.891 145.645 162.875 147.585 163.444C148.674 163.728 157.431 163.917 169.832 163.917C187.393 163.917 190.28 164.012 190.28 164.628C190.28 165.244 186.399 185.378 185.783 187.937L185.547 188.979L166.708 189.121C146.828 189.263 147.017 189.263 144.461 191.584C141.621 194.143 141.763 190.59 141.527 247.297L141.29 299.173H124.723H108.157L107.92 247.013L107.683 194.901L106.5 193.148C105.885 192.2 104.465 190.969 103.423 190.353C101.672 189.31 100.915 189.263 91.9213 189.121L82.36 188.931L82.4547 176.567L82.5967 164.154L92.3 163.917C100.299 163.728 102.287 163.538 103.518 162.875C105.411 161.786 106.831 159.985 107.447 157.806C107.683 156.859 107.967 148.094 108.062 138.335C108.299 118.485 108.63 115.453 111.565 106.499C116.961 90.1072 128.463 81.3902 147.207 79.59C152.934 79.0215 163.395 79.4479 170.873 80.5849Z" fill="#0260E8" transform="matrix(1, 0, 0, 1, 386.915527, 60.738594)"></path>
	</symbol>

	<!-- facebook-mobile-->
	<symbol id="facebook-mobile" viewBox="0 0 48 48">
		<path style="fill:#1b5ebd;" d="M47.761,24c0,13.121-10.638,23.76-23.758,23.76C10.877,47.76,0.239,37.121,0.239,24c0-13.124,10.638-23.76,23.764-23.76 C37.123,0.24,47.761,10.876,47.761,24 M20.033,38.85H26.2V24.01h4.163l0.539-5.242H26.2v-3.083c0-1.156,0.769-1.427,1.308-1.427 h3.318V9.168L26.258,9.15c-5.072,0-6.225,3.796-6.225,6.224v3.394H17.1v5.242h2.933V38.85z"></path>
	</symbol>

	<!-- instagramm -->
	<symbol id="instagramm" viewBox="0 0 161 161">
		<path d="M39.0124 0.479269C31.2571 1.84647 24.5389 4.74589 18.3158 9.46038C17.2551 10.2618 15.1571 12.1476 13.6485 13.6327C6.506 20.7752 2.19224 29.1434 0.471449 39.1853C0.0235725 41.9197 0 42.9569 0 80.4842C0 118.012 0.0235725 119.049 0.471449 121.783C1.65007 128.69 4.00732 134.63 7.77892 140.264C14.6857 150.518 24.9397 157.448 37.3624 160.23L40.1911 160.843L79.3214 160.937C114.091 160.984 118.735 160.961 121.021 160.631C134.08 158.721 145.772 151.343 153.221 140.264C156.993 134.63 159.35 128.69 160.529 121.783C160.976 119.049 161 118.012 161 80.4842C161 42.9569 160.976 41.9197 160.529 39.1853C158.289 26.1261 151.194 15.1178 140.28 7.76316C134.622 3.968 128.729 1.63432 121.799 0.455696C119.065 -0.015753 118.075 -0.015753 80.3114 0.00781947C43.1612 0.0313919 41.5111 0.0313919 39.0124 0.479269ZM117.65 12.7134C125.429 13.5148 132.336 16.6736 137.828 21.9774C143.439 27.399 146.668 33.5279 148.082 41.4718C148.318 42.8862 148.389 50.6179 148.389 80.6021C148.389 115.702 148.365 118.106 147.964 120.18C146.621 127.158 143.556 133.098 138.795 138.025C133.067 143.941 125.877 147.406 117.768 148.232C114.327 148.585 46.8149 148.585 43.3498 148.255C35.6416 147.477 28.6406 144.271 23.1246 138.944C17.7501 133.758 14.6621 128.053 13.0356 120.275C12.682 118.648 12.6348 114.452 12.5641 82.2522C12.4698 45.7856 12.517 43.3812 13.3184 39.4917C14.1199 35.5787 16.0529 31.0056 18.4101 27.4462C20.1073 24.9004 25.0104 20.0209 27.5798 18.3472C32.3414 15.2121 37.5745 13.3027 42.9019 12.737C45.8485 12.4305 114.657 12.4305 117.65 12.7134Z" fill="#0260E8"></path> 
		<path d="M128.635 24.7589C127.362 25.0653 126.584 25.5132 125.594 26.5033C124.416 27.6819 123.92 28.8134 123.803 30.5813C123.402 36.3801 130.45 39.4681 134.575 35.3194C136.838 33.0328 136.932 29.2612 134.74 26.6918C133.467 25.2068 130.568 24.2639 128.635 24.7589Z" fill="#0260E8"></path> 
		<path d="M75.6677 37.2523C66.1444 38.3367 57.399 42.4854 50.3509 49.2507C36.8674 62.192 33.2137 82.205 41.2519 99.1772C45.4006 107.923 52.8024 115.324 61.6421 119.638C78.4964 127.818 98.7216 124.188 111.734 110.633C120.125 101.888 124.416 90.7147 123.921 78.8342C123.449 67.4015 118.829 57.1003 110.649 49.2507C101.197 40.1753 88.4204 35.7908 75.6677 37.2523ZM87.2182 50.4058C104.78 54.4838 115.01 71.9981 109.989 89.3711C107.703 97.1971 101.739 104.34 94.4078 108.017C92.4749 108.96 88.8919 110.233 86.7468 110.681C83.9181 111.293 77.0821 111.293 74.2534 110.681C70.5053 109.879 66.8045 108.323 63.5279 106.178C49.4315 96.9614 45.4714 77.6555 54.7589 63.5828C59.8034 55.9217 67.2052 51.3015 76.7285 49.8636C78.4964 49.6043 85.2617 49.9343 87.2182 50.4058Z" fill="#0260E8"></path>
	</symbol>

	<!-- instagramm-mobile-->
	<symbol id="instagramm-mobile" viewBox="0 0 30 30">
		<path style="fill:#1b5ebd;" d="M15,11.014 C12.801,11.014 11.015,12.797 11.015,15 C11.015,17.202 12.802,18.987 15,18.987 C17.199,18.987 18.987,17.202 18.987,15 C18.987,12.797 17.199,11.014 15,11.014 L15,11.014 Z M15,17.606 C13.556,17.606 12.393,16.439 12.393,15 C12.393,13.561 13.556,12.394 15,12.394 C16.429,12.394 17.607,13.561 17.607,15 C17.607,16.439 16.444,17.606 15,17.606 L15,17.606 Z">
		</path>
		<path style="fill:#1b5ebd;" d="M19.385,9.556 C18.872,9.556 18.465,9.964 18.465,10.477 C18.465,10.989 18.872,11.396 19.385,11.396 C19.898,11.396 20.306,10.989 20.306,10.477 C20.306,9.964 19.897,9.556 19.385,9.556 L19.385,9.556 Z">
		</path>
		<path style="fill:#1b5ebd;" d="M15.002,0.15 C6.798,0.15 0.149,6.797 0.149,15 C0.149,23.201 6.798,29.85 15.002,29.85 C23.201,29.85 29.852,23.202 29.852,15 C29.852,6.797 23.201,0.15 15.002,0.15 L15.002,0.15 Z M22.666,18.265 C22.666,20.688 20.687,22.666 18.25,22.666 L11.75,22.666 C9.312,22.666 7.333,20.687 7.333,18.28 L7.333,11.734 C7.333,9.312 9.311,7.334 11.75,7.334 L18.25,7.334 C20.688,7.334 22.666,9.312 22.666,11.734 L22.666,18.265 L22.666,18.265 Z">
		</path>
	</symbol>

	<!-- on-top button -->
	<symbol id="on-top" viewBox="0 0 48 48">
		<path style="fill:#0260e8;" d="M24,3.125c11.511,0,20.875,9.364,20.875,20.875S35.511,44.875,24,44.875S3.125,35.511,3.125,24S12.489,3.125,24,3.125 M24,0.125C10.814,0.125,0.125,10.814,0.125,24S10.814,47.875,24,47.875S47.875,37.186,47.875,24S37.186,0.125,24,0.125L24,0.125z"></path>
		<path style="fill:#0260e8;" d="M25.5,36.033c0,0.828-0.671,1.5-1.5,1.5s-1.5-0.672-1.5-1.5V16.87l-7.028,7.061c-0.293,0.294-0.678,0.442-1.063,0.442 c-0.383,0-0.766-0.146-1.058-0.437c-0.587-0.584-0.589-1.534-0.005-2.121l9.591-9.637c0.281-0.283,0.664-0.442,1.063-0.442 c0,0,0.001,0,0.001,0c0.399,0,0.783,0.16,1.063,0.443l9.562,9.637c0.584,0.588,0.58,1.538-0.008,2.122 c-0.589,0.583-1.538,0.58-2.121-0.008l-6.994-7.049L25.5,36.033z"></path>
	</symbol>


<!-- ===== 2. HERO SECTION ===== -->

	<!-- plus (without blue fill around)-->
	<symbol id="plus" viewBox="0 0 25 25">
		<g stroke="#ffffff" stroke-width="1.5" fill="none" fill-rule="evenodd" stroke-linecap="square" transform="translate(7.500000, 7.700000)">
			<path d="M5,0 L5,9.28571429"></path>
			<path d="M0.357142857,4.64285714 L9.64285714,4.64285714"></path>
		</g>
	</symbol>


<!-- ===== 3. SERVICE SECTION ===== -->

	<!-- service-basic-icon-1 -->
	<symbol id="service-basic-icon-1" viewBox="0 0 69 55" fill="none">
		<path stroke-linejoin="round" stroke-linecap="round" stroke-width="2" stroke="#1B5EBD" d="m27.66599,4.3333l-6.666,-3.3333l0,53.3333l6.666,-3.3333"/>
		<path stroke-linejoin="round" stroke-linecap="round" stroke-width="2" stroke="#1B5EBD" d="m7.66599,4.3333l-6.666,-3.3333l0,53.3333l6.666,-3.3333"/>
		<path stroke-linejoin="round" stroke-linecap="round" stroke-width="2" stroke="#1B5EBD" d="m67.66599,44.3333l-26.666,10l0,-53.3333l26.666,10l0,33.3333z" clip-rule="evenodd" fill-rule="evenodd"/>
	</symbol>

	<!-- service-basic-icon-2 -->
	<symbol id="service-basic-icon-2" viewBox="0 0 62 62" fill="none">
		<path stroke-width="2" stroke="#1B5EBD" d="m31.7858,61c-0.532,0 -0.994,-0.1601 -1.318,-0.4802l-0.023,-0.0229c0,0 -1.249,-1.1432 -2.29,-2.3094c-0.486,-0.5488 -0.948,-1.1433 -1.272,-1.5777l-0.463,-0.6403l-0.277,-0.0457c-2.29,-0.4345 -4.488,-1.1662 -6.57,-2.1723l-1.017,-0.503l-0.023,1.1204c0,0.1143 0,0.2058 0,0.2973c0,1.0289 0.046,2.1036 0.046,2.1265c0.023,0.2515 -0.07,0.4802 -0.232,0.6631c-0.185,0.1829 -0.485,0.3201 -0.809,0.3201c-0.208,0 -0.416,-0.0457 -0.602,-0.1372l-0.508,-0.2515l-2.452,-1.4634l-0.139,-0.0915c-0.416,-0.3201 -0.74,-0.7546 -0.833,-1.2119l-0.208,-1.0975c-0.046,-0.2744 -0.116,-0.5945 -0.162,-0.9375c-0.046,-0.3888 -0.092,-0.8003 -0.115,-1.2119c-0.07,-0.9375 -0.093,-1.7607 -0.116,-2.1494c0,-0.1372 0,-0.2515 0,-0.3659l0,-0.2972l-0.208,-0.2058c-1.573,-1.6692 -2.938,-3.5442 -4.002,-5.5564l-0.532,-1.0061l-0.694,0.8918c-0.046,0.0686 -0.116,0.1371 -0.162,0.2286c-0.647,0.846 -1.249,1.7607 -1.249,1.7835c-0.162,0.2516 -0.439,0.4116 -0.763,0.4116c-0.44,0 -0.833,-0.2744 -1.041,-0.7317l-0.763,-1.5549c-0.347,-0.8689 -0.648,-1.692 -0.648,-1.692c-0.185,-0.4802 -0.185,-1.029 0,-1.4406c0,-0.0228 0.046,-0.1143 0.139,-0.2744l0.347,-0.6859c0.324,-0.6403 0.717,-1.372 1.087,-1.9665c0.324,-0.5716 0.717,-1.1204 1.041,-1.5549l0.555,-0.7546l-0.046,-0.2743c-0.139,-1.0747 -0.209,-2.1494 -0.209,-3.1784c0,-1.2119 0.093,-2.4466 0.278,-3.6585l0.162,-1.1205l-1.365,0.4116c-0.832,0.2515 -1.665,0.5717 -1.989,0.686l-0.023,0c-0.093,0.0457 -0.208,0.0686 -0.324,0.0686c-0.278,0 -0.555,-0.1143 -0.717,-0.3201c-0.231,-0.2744 -0.324,-0.6403 -0.254,-1.029l0.185,-1.0975l0.601,-2.3552c0.116,-0.5031 0.463,-0.9375 0.902,-1.1891l1.11,-0.5945c0.509,-0.2744 1.157,-0.5945 1.851,-0.8689c0.925,-0.3658 1.804,-0.6859 2.405,-0.8689l0.278,-0.0914l0.139,-0.2516c1.11,-2.0122 2.498,-3.8414 4.117,-5.4878l0.786,-0.8003l-1.341,-0.4573c-0.995,-0.343 -2.012,-0.5945 -2.082,-0.6174c-0.301,-0.0686 -0.555,-0.3201 -0.648,-0.6402c-0.115,-0.4116 0.024,-0.846 0.371,-1.1662l1.503,-1.3491c0.278,-0.2515 0.532,-0.4801 0.763,-0.6402l0.44,-0.3201c0.37,-0.2744 0.833,-0.4345 1.272,-0.4345c0.046,0 0.093,0 0.139,0l0.994,0.1144c0.764,0.1143 1.573,0.2743 2.267,0.4344c0.879,0.1829 1.596,0.3887 2.128,0.5717l0.579,0.2057l0.277,-0.1143c2.105,-0.9832 4.326,-1.6692 6.616,-2.035l1.133,-0.183l-0.648,-0.9146l-0.162,-0.2287c-0.601,-0.846 -1.295,-1.692 -1.318,-1.7149c-0.208,-0.2515 -0.255,-0.5716 -0.139,-0.8918c0.139,-0.3887 0.532,-0.6631 0.995,-0.7317l0.555,-0.0914c0.069,0 0.139,-0.0229 0.208,-0.0229l0.069,-0.0229c0.278,-0.0457 0.602,-0.0914 0.949,-0.0914l1.873,-0.0915c0.532,0 0.995,0.1601 1.319,0.4802l0.023,0.0228c0,0 1.226,1.1433 2.29,2.3095c0.509,0.5488 0.971,1.189 1.272,1.6006l0.463,0.6403l0.277,0.0457c2.29,0.4344 4.488,1.1661 6.569,2.1951l1.018,0.5031l0.023,-1.1205c0,-0.1143 0,-0.2058 0,-0.3201c0,-1.0518 -0.046,-2.1037 -0.046,-2.1265c-0.023,-0.2515 0.069,-0.4802 0.231,-0.6631c0.185,-0.183 0.486,-0.3201 0.81,-0.3201c0.208,0 0.416,0.0457 0.601,0.1371l0.509,0.2516l2.452,1.4634l0.139,0.0914c0.416,0.3202 0.74,0.7546 0.833,1.2119l0.208,1.0976c0.046,0.2744 0.115,0.5945 0.162,0.9375c0.046,0.3887 0.092,0.8003 0.115,1.2119c0.07,0.9375 0.093,1.7607 0.116,2.1494c0,0.1372 0,0.2744 0,0.3887l0,0.2973l0.208,0.2057c1.573,1.6693 2.915,3.5214 3.979,5.5336l0.532,0.9832l0.694,-0.8917c0.069,-0.0915 0.138,-0.1601 0.185,-0.2516c0.555,-0.7317 1.087,-1.5091 1.226,-1.7378c0.185,-0.2744 0.462,-0.4344 0.786,-0.4344c0.44,0 0.833,0.2744 1.041,0.7317l0.763,1.5777c0.347,0.8689 0.648,1.6921 0.648,1.6921c0.185,0.4802 0.185,1.029 0,1.4405c0,0.0229 -0.046,0.1144 -0.139,0.2744l-0.347,0.686c-0.324,0.6403 -0.717,1.3491 -1.087,1.9665c-0.324,0.5716 -0.717,1.1204 -1.041,1.5548l-0.578,0.7775l0.046,0.2744c0.139,1.0518 0.208,2.1036 0.208,3.1326c0,1.2119 -0.092,2.4695 -0.277,3.6814l-0.162,1.1204l1.087,-0.343l0.301,-0.0914c0.832,-0.2515 1.688,-0.5717 2.012,-0.7089l0.023,0c0.093,-0.0457 0.208,-0.0686 0.324,-0.0686c0.278,0 0.555,0.1144 0.717,0.3202c0.231,0.2744 0.324,0.6402 0.254,1.0289l-0.185,1.0976l-0.601,2.3552c-0.116,0.503 -0.463,0.9375 -0.902,1.189l-1.133,0.5945c-0.486,0.2515 -1.134,0.5945 -1.828,0.8689c-0.948,0.3887 -1.85,0.686 -2.452,0.8689l-0.277,0.0915l-0.139,0.2515c-1.11,1.9893 -2.498,3.8415 -4.117,5.4649l-0.787,0.8003l1.064,0.3659c0.093,0.0457 0.208,0.0686 0.301,0.1143c0.995,0.343 2.012,0.5945 2.082,0.6174c0.3,0.0686 0.555,0.3201 0.647,0.6402c0.116,0.4116 -0.023,0.8461 -0.37,1.1662l-1.503,1.3491c-0.278,0.2515 -0.532,0.4802 -0.764,0.6402l-0.439,0.3202c-0.37,0.2743 -0.833,0.4344 -1.249,0.4344c-0.046,0 -0.116,0 -0.162,0l-1.018,-0.1143c-0.763,-0.1143 -1.573,-0.2744 -2.267,-0.4345c-0.879,-0.1829 -1.596,-0.3887 -2.128,-0.5716l-0.601,-0.2058l-0.278,0.1143c-2.081,0.9833 -4.302,1.6692 -6.592,2.0351l-1.133,0.1829l0.647,0.9146c0.07,0.0915 0.116,0.1601 0.162,0.2516c0.625,0.846 1.296,1.692 1.296,1.692c0.208,0.2516 0.254,0.5945 0.138,0.8918c-0.138,0.3887 -0.532,0.6631 -0.994,0.7317l-0.555,0.0915c-0.07,0 -0.139,0.0228 -0.208,0.0228l-0.093,0.0229c-0.278,0.0457 -0.601,0.0915 -0.948,0.0915l-1.805,0.1143z"/>
  		<path stroke-width="2" stroke="#1B5EBD" d="m30.9998,38c3.866,0 7,-3.134 7,-7c0,-3.866 -3.134,-7 -7,-7c-3.866,0 -7,3.134 -7,7c0,3.866 3.134,7 7,7z"/>
	</symbol>

	<!-- service-basic-icon-3 -->
	<symbol id="service-basic-icon-3" viewBox="0 0 512 512">
		<path style="fill:none;stroke:#1b5ebd;stroke-miterlimit:10;stroke-width:15px;" d="M468.5331,119.83467,447.36672,94.15692,457.94992,81.318c5.84493-7.09071,15.32143-7.09071,21.16636,0l0,0c5.84493,7.0907,5.84493,18.587,0,25.67772Z"></path> 
		<rect style="fill:none;stroke:#1b5ebd;stroke-miterlimit:10;stroke-width:15px;" x="53.49192" y="393.0305" width="376.76899" height="99.36369" rx="23.87685"></rect> 
		<path style="fill:none;stroke:#1b5ebd;stroke-miterlimit:10;stroke-width:15px;" d="M280.7819,181.88265v99.36369H77.21771c-11.97251,0-21.67814-11.77427-21.67814-26.29858V208.18123c0-14.5243,9.70563-26.29858,21.67814-26.29858Z"></path> 
		<path style="fill:none;stroke:#1b5ebd;stroke-miterlimit:10;stroke-width:15px;" d="M466.06509,116.26713,450.30748,97.151c-5.39022-6.53907-14.12947-6.53907-19.51969,0l-16.11017,19.54388,35.27729,42.79625,16.11018-19.54388A19.35974,19.35974,0,0,0,466.06509,116.26713Z"></path> 
		<polygon style="fill:none;stroke:#1b5ebd;stroke-miterlimit:10;stroke-width:15px;" points="325.705 246.124 315.305 284.078 347.418 271.55 443.023 153.51 419.076 125.508 325.705 246.124 325.705 246.124"></polygon> 
		<line style="fill:none;stroke:#1b5ebd;stroke-miterlimit:10;stroke-width:15px;" x1="387.0467" y1="160.73226" x2="400.3506" y2="176.87174"></line> 
		<line style="fill:none;stroke:#1b5ebd;stroke-miterlimit:10;stroke-width:15px;" x1="370.41682" y1="180.90661" x2="383.72073" y2="197.04608"></line> 
		<line style="fill:none;stroke:#1b5ebd;stroke-miterlimit:10;stroke-width:15px;" x1="353.78695" y1="201.08095" x2="367.09085" y2="217.22043"></line> 
		<path style="fill:none;stroke:#1b5ebd;stroke-miterlimit:10;stroke-width:15px;" d="M315.4624,341.75883a21.59183,21.59183,0,0,1,1.76781,8.69433c0,9.7956-6.16345,17.73641-13.76026,17.73641s-13.76026-7.94081-13.76026-17.73641a21.83772,21.83772,0,0,1,2.05448-9.33191,6.53382,6.53382,0,0,1,.47779-1.565l11.228-23.53263,11.56244,24.3441A3.90148,3.90148,0,0,1,315.4624,341.75883Z"></path>
	</symbol>

	<!-- service-basic-icon-4 -->
	<symbol id="service-basic-icon-4" viewBox="0 0 512 512">
		<path style="fill:none;stroke-miterlimit:10;stroke-width:15px;stroke:#1b5ebd;stroke-linecap:round;" d="M448.51226,395.07557a138.77972,138.77972,0,0,0,15.62988-64.20805V80.87609a25.99822,25.99822,0,0,0-25.97763-25.97764H74.47763A25.99822,25.99822,0,0,0,48.5,80.87609V444.563a25.99822,25.99822,0,0,0,25.97763,25.97763H324.46906a139.12633,139.12633,0,0,0,92.2206-34.76673"></path> 
		<line style="fill:none;stroke-miterlimit:10;stroke-width:15px;stroke:#1b5ebd;stroke-linecap:round;" x1="285.59244" y1="275.67694" x2="413.12276" y2="399.1564"></line> <circle style="fill:none;stroke-miterlimit:10;stroke-width:15px;stroke:#1b5ebd;stroke-linecap:round;" cx="434.84683" cy="417.17717" r="25.97763"></circle> 
		<circle style="fill:none;stroke-miterlimit:10;stroke-width:15px;stroke:#1b5ebd;stroke-linecap:round;" cx="266.88006" cy="254.54568" r="25.97763"></circle> 
		<text style="fill:none;stroke-miterlimit:10;stroke-width:15px;font-size:117px;fill:#1b5ebd;stroke-linejoin:round;font-family:Circe-Bold, Circe;font-weight:700;" transform="translate(259.1819 432.39795)">R</text>
	</symbol>

	<!-- service-basic-icon-5 -->
	<symbol id="service-basic-icon-5" viewBox="0 0 512 512">
		<path style="stroke-miterlimit:10;fill:none;stroke:#1b5ebd;stroke-linecap:round;stroke-width:15px;" d="M284,55.93381l154.87228-.4562a25.14265,25.14265,0,0,1,25.14265,25.14265V445.85735A25.14265,25.14265,0,0,1,438.87228,471H73.63518a25.14264,25.14264,0,0,1-25.14264-25.14265V80.62023C49,60.5,52.11411,55.5,66,55.5"></path> 
		<line style="stroke-miterlimit:10;fill:none;stroke:#1b5ebd;stroke-linecap:round;stroke-width:15px;" x1="132" y1="55.04786" x2="218.03789" y2="55.47761"></line> 
		<polyline style="stroke-miterlimit:10;fill:none;stroke:#1b5ebd;stroke-linecap:round;stroke-width:15px;stroke-dasharray:24;" points="98 42.5 98.269 193.985 249.761 193.985 249.761 36"></polyline>
	</symbol>

	<!-- service-basic-icon-6-->
	<symbol id="service-basic-icon-6" viewBox="0 0 512 512">
		<path style="fill:none;stroke:#1b5ebd;stroke-linecap:round;stroke-miterlimit:10;stroke-width:15px;" d="M456,403.5v46c0,13.78081-9.8064,25.27586-24.22144,25.27586H66.368c-14.415,0-26.10076-11.17155-26.10076-24.95235V218.5"></path> 
		<path style="fill:none;stroke:#1b5ebd;stroke-linecap:round;stroke-miterlimit:10;stroke-width:15px;" d="M40.26724,152.5V85.2931A25.96551,25.96551,0,0,1,66.23276,59.32759H429.75A25.96551,25.96551,0,0,1,455.71552,85.2931V338.5"></path> 
		<path style="fill:none;stroke:#1b5ebd;stroke-linecap:round;stroke-miterlimit:10;stroke-width:15px;stroke-dasharray:24;" d="M25,184.5c73.38544.96434,130.18737,24.14793,163.34354,43.60345,70.43316,41.32909,92.30541,89.51489,158.84353,121.17241C406.91279,377.69215,453.36408,375.31128,488,368.5"></path>
	</symbol>

	<!-- service-basic-icon-7 -->
	<symbol id="service-basic-icon-7" viewBox="0 0 70 60" fill="none">
		<path stroke-width="2" stroke="#1B5EBD" d="m47,1l-25,0l0,16l25,0l0,-16z"/>
		<path stroke-width="2" stroke="#1B5EBD" d="m24,17l21,0l-2.451,5.6033c-0.637,1.4559 -2.076,2.3967 -3.665,2.3967l-8.412,0c-1.515,0 -2.9,-0.856 -3.578,-2.2111l-2.894,-5.7889z"/>
		<path fill="#1B5EBD" d="m30,25l0,-1l-1,0l0,1l1,0zm10,0l1,0l0,-1l-1,0l0,1zm-10,5.8334l-1,0l0,1.3874l1.316,-0.4387l-0.316,-0.9487zm10,-3.3334l0.316,0.9487l0.684,-0.2279l0,-0.7208l-1,0zm-10,6.3334l-0.316,-0.9487l-0.684,0.2279l0,0.7208l1,0zm10,-3.3334l1,0l0,-1.3874l-1.316,0.4388l0.316,0.9486zm-10,7.5l-1,0l0,1.3874l1.316,-0.4387l-0.316,-0.9487zm10,-3.3333l0.316,0.9487l0.684,-0.228l0,-0.7207l-1,0zm-10,6.3333l-0.316,-0.9487l-0.684,0.2279l0,0.7208l1,0zm10,-3.3333l1,0l0,-1.3875l-1.316,0.4388l0.316,0.9487zm-10,7.8333l-1,0l0,1.3874l1.316,-0.4387l-0.316,-0.9487zm10,-3.3333l0.316,0.9486l0.684,-0.2279l0,-0.7207l-1,0zm0,3l1,0l0,-1.3875l-1.316,0.4388l0.316,0.9487zm-10,3.3333l-0.316,-0.9487l-0.684,0.2279l0,0.7208l1,0zm0,2.5l-1,0l0,0.4806l0.375,0.3003l0.625,-0.7809zm5,4l-0.625,0.7809l0.625,0.4997l0.625,-0.4997l-0.625,-0.7809zm5,-4l0.625,0.7809l0.375,-0.3003l0,-0.4806l-1,0zm-10,-25l10,0l0,-2l-10,0l0,2zm1,4.8334l0,-5.8334l-2,0l0,5.8334l2,0zm8.684,-4.282l-10,3.3333l0.632,1.8974l10,-3.3334l-0.632,-1.8973zm-0.684,-1.5514l0,2.5l2,0l0,-2.5l-2,0zm-8.684,9.7821l10,-3.3334l-0.632,-1.8973l-10,3.3333l0.632,1.8974zm0.684,3.2179l0,-4.1666l-2,0l0,4.1666l2,0zm8.684,-4.282l-10,3.3333l0.632,1.8974l10,-3.3333l-0.632,-1.8974zm-0.684,-3.218l0,4.1667l2,0l0,-4.1667l-2,0zm-8.684,11.4487l10,-3.3333l-0.632,-1.8974l-10,3.3333l0.632,1.8974zm0.684,3.5513l0,-4.5l-2,0l0,4.5l2,0zm-0.684,0.9487l10,-3.3334l-0.632,-1.8973l-10,3.3333l0.632,1.8974zm8.684,-8.782l0,4.5l2,0l0,-4.5l-2,0zm0.684,6.5513l-10,3.3333l0.632,1.8974l10,-3.3334l-0.632,-1.8973zm-8.684,6.782l0,-2.5l-2,0l0,2.5l2,0zm4.625,3.2191l-5,-4l-1.25,1.5618l5,4l1.25,-1.5618zm3.75,-4l-5,4l1.25,1.5618l5,-4l-1.25,-1.5618zm-0.375,-5.0524l0,5.8333l2,0l0,-5.8333l-2,0z"/>
		<path stroke-width="2" stroke="#1B5EBD" d="m1,47l23.543,0l2,12l16.985,0l2,-12l23.472,0"/>
	</symbol>

	<!-- service-basic-icon-8 -->
	<symbol id="service-basic-icon-8" viewBox="0 0 513 448" fill="none">
		<path d="M511.548 308.263L501.286 280.073C500.584 278.144 499.172 276.681 497.454 275.865C497.439 275.858 497.424 275.849 497.409 275.842C497.297 275.789 497.18 275.748 497.065 275.701C496.957 275.657 496.851 275.607 496.741 275.568C496.715 275.558 496.687 275.552 496.66 275.544C495.097 275.009 493.348 274.98 491.675 275.59L467.15 284.509L414.979 141.161C414.978 141.157 414.975 141.154 414.974 141.151L394.46 84.783C393.38 81.833 390.55 79.852 387.41 79.852C386.54 79.852 385.67 80.002 384.85 80.302C380.96 81.712 378.95 86.032 380.36 89.912L398.321 139.244L302.006 174.298C302.005 174.298 302.003 174.298 302.001 174.299C301.998 174.3 301.996 174.302 301.993 174.302L243.275 195.672L203.939 87.617L255.626 68.807L266.742 99.341C267.812 102.291 270.642 104.282 273.782 104.282C274.662 104.282 275.522 104.132 276.352 103.821L313.941 90.141C315.821 89.461 317.321 88.081 318.171 86.271C318.799 84.925 319.004 83.458 318.795 82.025C318.794 82.017 318.794 82.009 318.793 82.002C318.764 81.807 318.722 81.611 318.677 81.418C318.664 81.363 318.657 81.311 318.644 81.256C318.583 81.013 318.509 80.772 318.422 80.532L307.31 49.997L358.986 31.19L370.1 61.721C371.18 64.671 374.01 66.661 377.15 66.661C378.02 66.661 378.89 66.511 379.72 66.201C383.6 64.791 385.61 60.48 384.2 56.591L370.52 19.002C369.575 16.421 367.291 14.582 364.63 14.162C364.25 14.102 363.862 14.071 363.47 14.071C362.6 14.071 361.73 14.221 360.91 14.521L295.166 38.452C295.155 38.456 295.143 38.457 295.132 38.461C295.112 38.468 295.094 38.478 295.074 38.485L257.609 52.123C257.587 52.131 257.565 52.133 257.543 52.141C257.506 52.155 257.471 52.173 257.434 52.187L191.765 76.09C189.885 76.77 188.385 78.15 187.535 79.96C186.685 81.78 186.595 83.819 187.285 85.7L231.743 207.855L274.496 325.327C269.076 323.671 263.385 322.741 257.557 322.628L149.248 25.046C142.176 5.61703 120.616 -4.43597 101.185 2.63403C101.182 2.63503 101.179 2.63703 101.176 2.63803L4.95299 37.342C4.95199 37.343 4.94999 37.343 4.94799 37.344C4.94299 37.346 4.93799 37.347 4.93199 37.349C4.75899 37.412 4.59499 37.487 4.42999 37.561C4.36699 37.589 4.30099 37.612 4.23899 37.642C4.07699 37.719 3.92299 37.809 3.76899 37.897C3.70599 37.933 3.63899 37.964 3.57699 38.003C3.42899 38.093 3.29099 38.193 3.15099 38.292C3.08899 38.336 3.02299 38.376 2.96299 38.421C2.83299 38.52 2.71199 38.627 2.58899 38.734C2.52699 38.789 2.45999 38.838 2.39999 38.894C2.28399 39 2.17799 39.117 2.06999 39.23C2.01099 39.293 1.94799 39.35 1.89099 39.414C1.78899 39.529 1.69599 39.652 1.60099 39.773C1.54699 39.841 1.48799 39.907 1.43699 39.978C1.35099 40.096 1.27499 40.22 1.19599 40.343C1.14499 40.423 1.08899 40.499 1.04099 40.58C0.96899 40.702 0.90699 40.83 0.84199 40.956C0.79699 41.043 0.74699 41.128 0.70499 41.217C0.64699 41.341 0.59999 41.469 0.54799 41.596C0.50899 41.693 0.46499 41.785 0.43099 41.883C0.38699 42.007 0.35299 42.135 0.31599 42.261C0.28499 42.365 0.24899 42.468 0.22199 42.574C0.19099 42.698 0.16999 42.826 0.14499 42.952C0.12299 43.062 0.0959896 43.172 0.0789896 43.283C0.0589896 43.411 0.0519896 43.541 0.0389896 43.67C0.0279896 43.782 0.0109896 43.894 0.00498962 44.007C-0.00201038 44.139 0.00298962 44.271 0.00298962 44.403C0.00298962 44.516 -0.00301038 44.629 0.00198962 44.742C0.00798962 44.876 0.0269896 45.011 0.0399896 45.145C0.0509896 45.256 0.0569896 45.368 0.0729896 45.48C0.0929896 45.613 0.12499 45.746 0.15199 45.879C0.17499 45.992 0.19199 46.106 0.21999 46.219C0.25299 46.352 0.29999 46.483 0.34099 46.615C0.37499 46.724 0.40199 46.835 0.44099 46.944C0.44199 46.946 0.44299 46.949 0.44399 46.951C0.44499 46.956 0.44599 46.96 0.44799 46.965L10.709 75.155C10.786 75.367 10.892 75.56 10.985 75.761C11.058 75.917 11.117 76.083 11.2 76.232C11.317 76.443 11.458 76.631 11.593 76.828C11.678 76.951 11.75 77.086 11.842 77.203C12.003 77.41 12.187 77.594 12.367 77.78C12.451 77.867 12.525 77.966 12.613 78.049C12.816 78.24 13.039 78.406 13.26 78.572C13.34 78.633 13.412 78.704 13.494 78.76C13.733 78.925 13.989 79.064 14.245 79.199C14.321 79.239 14.391 79.291 14.468 79.329C14.73 79.457 15.005 79.556 15.28 79.652C15.36 79.68 15.435 79.72 15.516 79.746C15.798 79.835 16.088 79.892 16.38 79.948C16.46 79.963 16.538 79.991 16.619 80.003C16.993 80.062 17.374 80.091 17.758 80.091C17.97 80.091 18.183 80.081 18.397 80.064C18.441 80.06 18.484 80.051 18.528 80.047C18.698 80.029 18.867 80.01 19.037 79.981C19.115 79.967 19.193 79.946 19.271 79.93C19.406 79.902 19.541 79.876 19.675 79.84C19.818 79.803 19.959 79.754 20.101 79.707C20.168 79.686 20.235 79.668 20.301 79.644L20.309 79.641C20.313 79.64 20.317 79.638 20.321 79.637C20.324 79.636 20.327 79.634 20.33 79.633L109.517 47.465L215.28 338.038C196.414 354.54 188.557 381.564 197.632 406.495C206.588 431.1 230.191 447.633 256.366 447.633C263.648 447.633 270.838 446.36 277.737 443.849C293.424 438.139 305.948 426.664 313.004 411.534C316.754 403.491 318.701 394.93 318.863 386.316L507.064 317.877C507.064 317.877 507.065 317.877 507.066 317.876H507.067C507.117 317.858 507.163 317.834 507.212 317.815C507.403 317.741 507.592 317.666 507.773 317.578C507.85 317.541 507.921 317.496 507.997 317.456C508.145 317.379 508.293 317.304 508.434 317.218C508.514 317.168 508.588 317.11 508.666 317.059C508.794 316.973 508.925 316.89 509.047 316.798C509.086 316.768 509.12 316.734 509.158 316.704C509.312 316.581 509.465 316.458 509.608 316.325C509.632 316.299 509.654 316.274 509.678 316.251C509.829 316.105 509.977 315.958 510.116 315.802C510.144 315.771 510.167 315.736 510.195 315.704C510.325 315.552 510.452 315.398 510.569 315.237C510.582 315.22 510.592 315.201 510.604 315.183C510.731 315.004 510.853 314.822 510.964 314.633C510.984 314.599 511 314.562 511.02 314.527C511.119 314.353 511.214 314.178 511.299 313.997C511.332 313.926 511.358 313.851 511.388 313.779C511.452 313.631 511.517 313.483 511.572 313.331C511.609 313.226 511.636 313.118 511.668 313.012C511.706 312.889 511.749 312.767 511.78 312.642C511.826 312.457 511.86 312.269 511.892 312.081C511.9 312.031 511.914 311.983 511.921 311.934C512.1 310.738 511.991 309.48 511.548 308.263ZM293.217 55.127L301.762 78.617L278.27 87.167L269.72 63.678L293.217 55.127ZM337.677 177.281L346.228 200.769L322.729 209.321L314.181 185.832L337.677 177.281ZM248.409 209.768L300.088 190.961L311.204 221.495C312.274 224.445 315.104 226.434 318.254 226.434C319.124 226.434 319.984 226.275 320.814 225.974L358.403 212.294C362.293 210.884 364.303 206.574 362.883 202.684L351.768 172.152L403.455 153.341L453.06 289.628L303.421 344.045C300.611 340.836 297.496 337.922 294.116 335.359L248.409 209.768ZM121.057 35.305C121.013 35.185 120.958 35.072 120.909 34.954C120.86 34.839 120.816 34.72 120.762 34.607C120.713 34.504 120.655 34.41 120.602 34.311C120.536 34.188 120.473 34.062 120.401 33.944C120.351 33.863 120.294 33.789 120.241 33.71C120.156 33.582 120.074 33.452 119.981 33.331C119.933 33.267 119.878 33.21 119.828 33.147C119.724 33.018 119.621 32.889 119.508 32.768C119.463 32.719 119.412 32.675 119.365 32.627C119.241 32.501 119.118 32.375 118.986 32.258C118.948 32.225 118.907 32.196 118.869 32.164C118.723 32.039 118.575 31.916 118.42 31.804C118.398 31.788 118.374 31.776 118.352 31.759C118.178 31.635 118 31.517 117.816 31.408C117.802 31.4 117.787 31.393 117.773 31.386C116.749 30.791 115.589 30.44 114.389 30.377C114.378 30.377 114.368 30.378 114.357 30.377C114.125 30.366 113.892 30.365 113.657 30.376C113.614 30.378 113.571 30.386 113.528 30.389C113.326 30.402 113.124 30.418 112.922 30.448C112.825 30.463 112.729 30.487 112.632 30.506C112.484 30.533 112.335 30.558 112.187 30.595C112.019 30.637 111.852 30.694 111.685 30.747C111.611 30.771 111.536 30.789 111.462 30.815L111.452 30.819C111.449 30.82 111.445 30.821 111.441 30.822C111.438 30.823 111.435 30.825 111.432 30.826L22.245 62.994L17.114 48.898L106.29 16.734C106.292 16.733 106.293 16.732 106.295 16.732C106.3 16.73 106.305 16.729 106.311 16.727C117.971 12.484 130.906 18.516 135.149 30.175L242.183 324.252C239.753 324.82 237.348 325.525 234.979 326.388C232.592 327.257 230.302 328.272 228.09 329.392L121.057 35.305ZM299.407 405.192C294.045 416.691 284.527 425.413 272.605 429.752C267.355 431.663 261.89 432.632 256.364 432.632C236.471 432.632 218.532 420.066 211.726 401.363C202.768 376.753 215.503 349.442 240.114 340.483C245.364 338.572 250.828 337.603 256.355 337.603C276.247 337.603 294.187 350.169 300.993 368.873C305.333 380.795 304.77 393.694 299.407 405.192ZM317.221 370.95C316.651 368.526 315.953 366.12 315.088 363.744C314.224 361.369 313.219 359.071 312.093 356.853L489.755 292.247L494.886 306.343L317.221 370.95Z" fill="#1B5EBD"></path>
	</symbol>

	<!-- service-extra-icon-1-->
	<symbol id="service-extra-icon-1" viewBox="0 0 512 512">
		<line style="stroke-linecap:round;fill:none;stroke:#2b5ea9;stroke-miterlimit:10;stroke-width:10px;" x1="327.29" y1="322.35" x2="224.91" y2="420"></line> 
		<line style="stroke-linecap:round;fill:none;stroke:#2b5ea9;stroke-miterlimit:10;stroke-width:10px;" x1="285.38" y1="40.73" x2="183" y2="138.38"></line> 
		<path style="fill:none;stroke:#2b5ea9;stroke-miterlimit:10;stroke-width:10px;" d="M463,59V425.52a23.33,23.33,0,0,1-23.32,23.33H72.33A23.33,23.33,0,0,1,49,425.52V59A23.33,23.33,0,0,1,72.33,35.67H439.68A23.32,23.32,0,0,1,463,59Z"></path> 
		<line style="fill:none;stroke:#2b5ea9;stroke-miterlimit:10;stroke-width:10px;" x1="462.6" y1="420" x2="49.41" y2="420"></line> 
		<line style="fill:none;stroke:#2b5ea9;stroke-miterlimit:10;stroke-width:10px;" x1="49" y1="425.52" x2="49" y2="58.99"></line> 
		<line style="fill:none;stroke:#2b5ea9;stroke-miterlimit:10;stroke-width:10px;" x1="183" y1="420" x2="183" y2="35.67"></line> 
		<line style="fill:none;stroke:#2b5ea9;stroke-miterlimit:10;stroke-width:10px;" x1="328.6" y1="420" x2="328.6" y2="35.67"></line> 
		<polyline style="fill:none;stroke:#2b5ea9;stroke-miterlimit:10;stroke-width:10px;" points="462.6 54.69 462.6 420 462.6 429.82"></polyline> 
		<line style="stroke-linecap:round;fill:none;stroke:#2b5ea9;stroke-miterlimit:10;stroke-width:10px;" x1="444.56" y1="188.92" x2="444.56" y2="228.92"></line> <line style="stroke-linecap:round;fill:none;stroke:#2b5ea9;stroke-miterlimit:10;stroke-width:10px;" x1="66.31" y1="188.92" x2="66.31" y2="228.92"></line> <line style="stroke-linecap:round;fill:none;stroke:#2b5ea9;stroke-miterlimit:10;stroke-width:10px;" x1="183" y1="113.65" x2="266.82" y2="35.67"></line> 
		<line style="stroke-linecap:round;fill:none;stroke:#2b5ea9;stroke-miterlimit:10;stroke-width:10px;" x1="201.41" y1="417.13" x2="327.29" y2="300.03"></line> <line style="stroke-linecap:round;fill:none;stroke:#2b5ea9;stroke-miterlimit:10;stroke-width:10px;" x1="183" y1="314.55" x2="328.6" y2="179.11"></line>
	</symbol>

	<!-- service-extra-icon-2-->
	<symbol id="service-extra-icon-2" viewBox="0 0 512 512">
		<path style="fill:none;stroke-miterlimit:10;stroke-width:10px;stroke:#2b5ea9;" d="M466.83,163.8c-2,3.18-11.46,13.58-22.82,13.58H78.25C65.43,177.38,55,166.32,55,162.54V71C55,67.27,65.43,56.2,78.25,56.2H444c11.36,0,20.82,10.41,22.82,13.58C467.09,70.19,467.09,163.39,466.83,163.8Z"></path> 
		<path style="fill:none;stroke-miterlimit:10;stroke-width:10px;stroke:#2b5ea9;" d="M466.93,456.66c-2,3.83-11.46,12.72-22.82,12.72H78.35c-12.82,0-23.23-9.69-23.23-14.24V337.62c0-4.55,10.41-14.24,23.23-14.24H444.11c11.36,0,20.82,8.9,22.82,12.72C467.19,336.6,467.19,456.17,466.93,456.66Z"></path> 
		<line style="fill:none;stroke-miterlimit:10;stroke-width:10px;stroke:#2b5ea9;" x1="257.15" y1="177.38" x2="256.32" y2="56.2"></line> 
		<line style="fill:none;stroke-miterlimit:10;stroke-width:10px;stroke:#2b5ea9;" x1="259.13" y1="469.38" x2="258.14" y2="323.38"></line> 
		<line style="fill:none;stroke-miterlimit:10;stroke-width:10px;stroke:#2b5ea9;stroke-linecap:round;" x1="323.06" y1="116.79" x2="399.06" y2="116.79"></line> 
		<line style="fill:none;stroke-miterlimit:10;stroke-width:10px;stroke:#2b5ea9;stroke-linecap:round;" x1="121.18" y1="116.79" x2="197.18" y2="116.79"></line> 
		<rect style="fill:none;stroke-miterlimit:10;stroke-width:10px;stroke:#2b5ea9;" x="307.04" y="263.96" width="116.12" height="59.42" rx="7.02"></rect> 
		<line style="fill:none;stroke-miterlimit:10;stroke-width:10px;stroke:#2b5ea9;" x1="307.04" y1="293.95" x2="423.17" y2="293.4"></line> 
		<line style="fill:none;stroke-miterlimit:10;stroke-width:10px;stroke:#2b5ea9;" x1="307.04" y1="278.25" x2="423.17" y2="277.7"></line> 
		<line style="fill:none;stroke-miterlimit:10;stroke-width:10px;stroke:#2b5ea9;" x1="307.19" y1="310.19" x2="423.31" y2="309.64"></line> 
		<path style="fill:none;stroke-miterlimit:10;stroke-width:10px;stroke:#2b5ea9;stroke-linecap:round;" d="M177.55,272.26a18.07,18.07,0,0,1,36.14,0"></path> 
		<line style="fill:none;stroke-miterlimit:10;stroke-width:10px;stroke:#2b5ea9;stroke-linecap:round;" x1="213.7" y1="323.38" x2="213.7" y2="272.26"></line> 
		<rect style="fill:none;stroke-miterlimit:10;stroke-width:10px;stroke:#2c5ea8;" x="115.38" y="297.82" width="74.03" height="25.56" rx="9.71"></rect> 
		<line style="fill:none;stroke-miterlimit:10;stroke-width:10px;stroke:#2b5ea9;stroke-linecap:round;" x1="288.72" y1="377.38" x2="288.72" y2="415.38"></line> 
		<line style="fill:none;stroke-miterlimit:10;stroke-width:10px;stroke:#2b5ea9;stroke-linecap:round;" x1="228.64" y1="377.38" x2="228.64" y2="415.38"></line>
	</symbol>

	<!-- service-extra-icon-3-->
	<symbol id="service-extra-icon-3" viewBox="0 0 512 512">
		<path xmlns="http://www.w3.org/2000/svg" fill="none" stroke="#2b5ea9" stroke-miterlimit="10" stroke-width="10" d="M463.9,341.41c-2,5.77-11.51,13.13-22.92,13.13H73.63c-12.88,0-23.33-8.56-23.33-15.42V150c0-6.86,10.45-15.42,23.33-15.42H441c11.41,0,20.91,8.36,22.92,14.13C464.16,149.41,464.16,340.67,463.9,341.41Z"/><rect xmlns="http://www.w3.org/2000/svg" width="350" height="156" x="82.29" y="166.54" fill="none" stroke="#2b5ea9" stroke-miterlimit="10" stroke-width="10" rx="29.5"/><path xmlns="http://www.w3.org/2000/svg" fill="none" stroke="#2b5ea9" stroke-miterlimit="10" stroke-width="10" d="M221.78,134.54l12.54-66.41c0-16.67-12.21-30.18-27.27-30.18H99.59C84.53,38,72.32,51.46,72.32,68.13l12.92,67.71"/><path xmlns="http://www.w3.org/2000/svg" fill="none" stroke="#2b5ea9" stroke-miterlimit="10" stroke-width="10" d="M293,134.54,280.27,68.13c0-16.67,12.21-30.18,27.27-30.18H415c15.06,0,27.26,13.51,27.26,30.18l-12.79,67.74"/><path xmlns="http://www.w3.org/2000/svg" fill="none" stroke="#2b5ea9" stroke-miterlimit="10" stroke-width="10" d="M85.24,353.24,72.32,421c0,16.66,12.21,30.17,27.27,30.17H207.05c15.06,0,27.27-13.51,27.27-30.17l-12.54-66.42"/><path xmlns="http://www.w3.org/2000/svg" fill="none" stroke="#2b5ea9" stroke-miterlimit="10" stroke-width="10" d="M293,354.54,280.27,421c0,16.66,12.21,30.17,27.27,30.17H415c15.06,0,27.26-13.51,27.26-30.17l-12.79-67.75"/><path xmlns="http://www.w3.org/2000/svg" fill="none" stroke="#2b5ea9" stroke-miterlimit="10" stroke-width="10" d="M153.32 134.54L153.32 37.95"/><path xmlns="http://www.w3.org/2000/svg" fill="none" stroke="#2b5ea9" stroke-miterlimit="10" stroke-width="10" d="M153.32 451.13L153.32 354.54"/><path xmlns="http://www.w3.org/2000/svg" fill="none" stroke="#2b5ea9" stroke-miterlimit="10" stroke-width="10" d="M361.27 134.54L361.27 37.95"/><path xmlns="http://www.w3.org/2000/svg" fill="none" stroke="#2b5ea9" stroke-miterlimit="10" stroke-width="10" d="M361.27 451.13L361.27 354.54"/> 
	</symbol>

	<!-- service-extra-icon-4-->
	<symbol id="service-extra-icon-4" viewBox="0 0 512 512">
		<path xmlns="http://www.w3.org/2000/svg" fill="none" stroke="#2b5ea9" stroke-miterlimit="10" stroke-width="10" d="M463,61.27V427.8a23.33,23.33,0,0,1-23.32,23.33H72.33A23.33,23.33,0,0,1,49,427.8V61.27A23.33,23.33,0,0,1,72.33,38H439.68A23.32,23.32,0,0,1,463,61.27Z"/><rect xmlns="http://www.w3.org/2000/svg" width="350" height="349.18" x="81" y="69.95" fill="none" stroke="#2b5ea9" stroke-miterlimit="10" stroke-width="10" rx="22.69"/><path xmlns="http://www.w3.org/2000/svg" fill="none" stroke="#2b5ea9" stroke-linecap="round" stroke-miterlimit="10" stroke-width="10" d="M103.11 175.46L183.11 96.27"/><path xmlns="http://www.w3.org/2000/svg" fill="none" stroke="#2b5ea9" stroke-linecap="round" stroke-miterlimit="10" stroke-width="10" d="M317.32 392.8L397.32 313.61"/><path xmlns="http://www.w3.org/2000/svg" fill="none" stroke="#2b5ea9" stroke-linecap="round" stroke-miterlimit="10" stroke-width="10" d="M229.87 295.6L309.87 216.4"/><path xmlns="http://www.w3.org/2000/svg" fill="none" stroke="#2b5ea9" stroke-linecap="round" stroke-miterlimit="10" stroke-width="10" d="M201.71 267.15L281.71 187.95"/><path xmlns="http://www.w3.org/2000/svg" fill="none" stroke="#2b5ea9" stroke-linecap="round" stroke-miterlimit="10" stroke-width="10" d="M338.93 155.32L173.63 327.72"/>
	</symbol>


<!-- ===== 5. QUOTE BLOCK ===== -->

	<!-- quote-icon -->
	<symbol id="quote-icon" viewBox="0 0 23.89 18.62">
		<path xmlns="http://www.w3.org/2000/svg" fill="#1b5ebd" d="M.14,16.7C5.41,12.14,4.55,6.7,3,4.7A5.3,5.3,0,0,1,8.18,0a4.45,4.45,0,0,1,4.59,4.3,3.23,3.23,0,0,1,0,.44c0,5.12-4.7,11.46-11.46,13.81C.57,18.83-.36,18,.14,16.7Z"/><path xmlns="http://www.w3.org/2000/svg" fill="#1b5ebd" d="M11.21,16.7c5.27-4.56,4.42-10,2.85-12A5.31,5.31,0,0,1,19.24,0a4.45,4.45,0,0,1,4.64,4.26,2.9,2.9,0,0,1,0,.51c0,5.12-4.7,11.46-11.45,13.81C11.64,18.83,10.71,18,11.21,16.7Z"/>
	</symbol>

	<!-- quote-youtube -->
	<symbol id="quote-youtube" viewBox="0 0 1024 721">
		<path xmlns="http://www.w3.org/2000/svg" fill="#FFFFFF" d="M407,493l276-143L407,206V493z"/>
		<path xmlns="http://www.w3.org/2000/svg" fill="#420000" d="M407,206l242,161.6l34-17.6L407,206z" opacity=".12"/>
		<path xmlns="http://www.w3.org/2000/svg" fill="#E52D27" d="M1013,156.3c0,0-10-70.4-40.6-101.4C933.6,14.2,890,14,870.1,11.6C727.1,1.3,512.7,1.3,512.7,1.3 h-0.4c0,0-214.4,0-357.4,10.3C135,14,91.4,14.2,52.6,54.9C22,85.9,12,156.3,12,156.3S1.8,238.9,1.8,321.6v77.5 C1.8,481.8,12,564.4,12,564.4s10,70.4,40.6,101.4c38.9,40.7,89.9,39.4,112.6,43.7c81.7,7.8,347.3,10.3,347.3,10.3 s214.6-0.3,357.6-10.7c20-2.4,63.5-2.6,102.3-43.3c30.6-31,40.6-101.4,40.6-101.4s10.2-82.7,10.2-165.3v-77.5 C1023.2,238.9,1013,156.3,1013,156.3z M407,493V206l276,144L407,493z"/>
	</symbol>


<!-- ===== 8. QUESTIONS SECTION ===== -->

	<!-- questions-icon -->
	<symbol id="questions-icon" viewBox="0 0 100 100">
		<rect x="27.5" y="4.1" style="fill: none;stroke: #0260e8;stroke-width: 5;stroke-linecap: round;stroke-linejoin: round;stroke-miterlimit: 10;" width="56.5" height="73.5"></rect>
		<line style="fill: none;stroke: #0260e8;stroke-width: 5;stroke-linecap: round;stroke-linejoin: round;stroke-miterlimit: 10;" x1="41.5" y1="22.1" x2="70.6" y2="22.1"></line>
		<line style="fill: none;stroke: #0260e8;stroke-width: 5;stroke-linecap: round;stroke-linejoin: round;stroke-miterlimit: 10;" x1="41.5" y1="38.8" x2="70.6" y2="38.8"></line>
		<line style="fill: none;stroke: #0260e8;stroke-width: 5;stroke-linecap: round;stroke-linejoin: round;stroke-miterlimit: 10;" x1="41.5" y1="55.5" x2="70.6" y2="55.5"></line>
		<polyline style="fill: none;stroke: #0260e8;stroke-width: 5;stroke-linecap: round;stroke-linejoin: round;stroke-miterlimit: 10;" points="66.4,77.6 66.4,95.6 9.8,95.6 9.8,22.1 27.5,22.1"></polyline>
	</symbol>






</svg>
