<svg xmlns="http://www.w3.org/2000/svg" xmlns:xlink="http://www.w3.org/1999/xlink">>

<!-- ===== 0. GLOBAL ===== -->	

	<!-- logo -->
	<symbol id="logo" viewBox="0 0 450 124" fill="none">
		 <path d="M281.984 2.5H368.801V121.5H281.984V2.5Z" stroke="#1B5EBD" stroke-width="5"></path> 
		 <rect x="328.652" y="30.2979" width="79.8876" height="70.03" fill="white"></rect> 
		 <rect x="225.506" y="30.2979" width="79.8876" height="70.03" fill="white"></rect> 
		 <path d="M5.06 47.7296H21.45C26.73 47.7296 30.855 48.8662 33.825 51.1396C36.795 53.4129 38.28 56.7679 38.28 61.2046C38.28 65.6412 36.795 68.9229 33.825 71.0496C30.8917 73.1762 26.7667 74.2396 21.45 74.2396H17.875V84.7446C17.875 85.1479 17.7283 85.4962 17.435 85.7896C17.1417 86.0829 16.7933 86.2296 16.39 86.2296H5.06C4.65667 86.2296 4.30833 86.0829 4.015 85.7896C3.72167 85.4962 3.575 85.1479 3.575 84.7446V49.2146C3.575 48.8112 3.72167 48.4629 4.015 48.1696C4.30833 47.8762 4.65667 47.7296 5.06 47.7296ZM17.6 57.9596V64.0646H21.45C22.11 64.0646 22.6967 63.8262 23.21 63.3496C23.7233 62.8362 23.98 62.1212 23.98 61.2046C23.98 60.2879 23.7783 59.5179 23.375 58.8946C22.9717 58.2712 22.33 57.9596 21.45 57.9596H17.6ZM54.9901 47.7296H66.9251C68.2451 47.7296 69.0701 48.3346 69.4001 49.5446L81.6651 84.6346C81.7018 84.7446 81.7201 84.9279 81.7201 85.1846C81.7201 85.4046 81.5918 85.6429 81.3351 85.8996C81.1151 86.1196 80.8401 86.2296 80.5101 86.2296H70.3351C69.2351 86.2296 68.5201 85.7712 68.1901 84.8546L66.8701 81.2246H55.0451L53.7251 84.8546C53.3951 85.7712 52.6801 86.2296 51.5801 86.2296H41.4051C41.0751 86.2296 40.7818 86.1196 40.5251 85.8996C40.3051 85.6429 40.1951 85.4046 40.1951 85.1846C40.1951 84.9279 40.2135 84.7446 40.2501 84.6346L52.5151 49.5446C52.8451 48.3346 53.6701 47.7296 54.9901 47.7296ZM57.8501 70.4996H64.0651L60.9301 60.2696L57.8501 70.4996ZM99.3287 62.3596V71.5996C99.3287 74.5696 100.685 76.0546 103.399 76.0546C105.489 76.0546 106.864 75.0646 107.524 73.0846C107.707 72.4612 107.927 72.0396 108.184 71.8196C108.477 71.5996 108.935 71.4896 109.559 71.4896H120.779C121.109 71.4896 121.384 71.6179 121.604 71.8746C121.86 72.0946 121.989 72.3696 121.989 72.6996C121.989 75.8896 121.072 78.5662 119.239 80.7296C115.865 84.7629 110.604 86.7796 103.454 86.7796C97.8437 86.7796 93.3704 85.5512 90.0337 83.0946C86.697 80.6012 85.0287 76.7879 85.0287 71.6546V62.3046C85.0287 57.2812 86.7337 53.5046 90.1437 50.9746C93.5537 48.4446 97.9904 47.1796 103.454 47.1796C110.604 47.1796 115.865 49.1962 119.239 53.2296C121.072 55.3929 121.989 58.0696 121.989 61.2596C121.989 61.5896 121.86 61.8829 121.604 62.1396C121.384 62.3596 121.109 62.4696 120.779 62.4696H109.559C108.972 62.4696 108.532 62.3596 108.239 62.1396C107.982 61.9196 107.744 61.4979 107.524 60.8746C106.827 58.8946 105.452 57.9046 103.399 57.9046C100.685 57.9046 99.3287 59.3896 99.3287 62.3596ZM128.703 47.7296H162.143C162.546 47.7296 162.894 47.8762 163.188 48.1696C163.481 48.4629 163.628 48.8112 163.628 49.2146V84.7446C163.628 85.1479 163.481 85.4962 163.188 85.7896C162.894 86.0829 162.546 86.2296 162.143 86.2296H151.363C150.959 86.2296 150.611 86.0829 150.318 85.7896C150.024 85.4962 149.878 85.1479 149.878 84.7446V59.8296H140.968V84.7446C140.968 85.1479 140.821 85.4962 140.528 85.7896C140.234 86.0829 139.886 86.2296 139.483 86.2296H128.703C128.299 86.2296 127.951 86.1012 127.658 85.8446C127.364 85.5512 127.218 85.1846 127.218 84.7446V49.2146C127.218 48.8112 127.364 48.4629 127.658 48.1696C127.951 47.8762 128.299 47.7296 128.703 47.7296ZM172.262 47.7296H182.217C182.62 47.7296 182.969 47.8762 183.262 48.1696C183.555 48.4629 183.702 48.8112 183.702 49.2146V64.2296L192.997 48.9946C193.474 48.1512 194.225 47.7296 195.252 47.7296H203.942C204.345 47.7296 204.694 47.8762 204.987 48.1696C205.28 48.4629 205.427 48.8112 205.427 49.2146V84.7446C205.427 85.1479 205.28 85.4962 204.987 85.7896C204.694 86.0829 204.345 86.2296 203.942 86.2296H193.987C193.584 86.2296 193.235 86.0829 192.942 85.7896C192.649 85.4962 192.502 85.1479 192.502 84.7446V70.9396L183.207 84.9646C182.657 85.8079 181.905 86.2296 180.952 86.2296H172.262C171.859 86.2296 171.51 86.0829 171.217 85.7896C170.924 85.4962 170.777 85.1479 170.777 84.7446V49.2146C170.777 48.8112 170.924 48.4629 171.217 48.1696C171.51 47.8762 171.859 47.7296 172.262 47.7296ZM211.629 86.7796C211.226 86.7796 210.859 86.6329 210.529 86.3396C210.236 86.0462 210.089 85.6979 210.089 85.2946V77.2096C210.089 76.8062 210.236 76.4579 210.529 76.1646C210.823 75.8712 211.171 75.7246 211.574 75.7246C214.288 75.7246 215.644 74.3129 215.644 71.4896V49.2146C215.644 48.8112 215.791 48.4629 216.084 48.1696C216.378 47.8762 216.726 47.7296 217.129 47.7296H248.369C248.773 47.7296 249.121 47.8762 249.414 48.1696C249.708 48.4629 249.854 48.8112 249.854 49.2146V84.7446C249.854 85.1479 249.708 85.4962 249.414 85.7896C249.121 86.0829 248.773 86.2296 248.369 86.2296H237.589C237.186 86.2296 236.838 86.0829 236.544 85.7896C236.251 85.4962 236.104 85.1479 236.104 84.7446V59.8296H229.394V71.3246C229.394 76.4579 227.799 80.3262 224.609 82.9296C221.419 85.4962 217.093 86.7796 211.629 86.7796Z" fill="#1B5EBD"></path> 
		 <path d="M286.905 74.9546H302.14C302.544 74.9546 302.892 75.1012 303.185 75.3946C303.479 75.6879 303.625 76.0362 303.625 76.4396V84.7446C303.625 85.1479 303.479 85.4962 303.185 85.7896C302.892 86.0829 302.544 86.2296 302.14 86.2296H274.42C274.017 86.2296 273.669 86.0829 273.375 85.7896C273.082 85.4962 272.935 85.1479 272.935 84.7446V49.2146C272.935 48.8112 273.082 48.4629 273.375 48.1696C273.669 47.8762 274.017 47.7296 274.42 47.7296H285.42C285.824 47.7296 286.172 47.8762 286.465 48.1696C286.759 48.4629 286.905 48.8112 286.905 49.2146V74.9546ZM331.424 47.7296H342.204C342.608 47.7296 342.956 47.8762 343.249 48.1696C343.543 48.4629 343.689 48.8112 343.689 49.2146V71.3246C343.689 76.4579 342.094 80.3262 338.904 82.9296C335.714 85.4962 331.369 86.7796 325.869 86.7796C320.406 86.7796 316.061 85.4962 312.834 82.9296C309.644 80.3629 308.049 76.4946 308.049 71.3246V49.2146C308.049 48.8112 308.196 48.4629 308.489 48.1696C308.783 47.8762 309.131 47.7296 309.534 47.7296H320.314C320.718 47.7296 321.066 47.8762 321.359 48.1696C321.653 48.4629 321.799 48.8112 321.799 49.2146V71.4896C321.799 74.3129 323.156 75.7246 325.869 75.7246C328.583 75.7246 329.939 74.3129 329.939 71.4896V49.2146C329.939 48.8112 330.086 48.4629 330.379 48.1696C330.673 47.8762 331.021 47.7296 331.424 47.7296ZM387.734 84.4146C387.844 84.5979 387.899 84.8362 387.899 85.1296C387.899 85.3862 387.771 85.6429 387.514 85.8996C387.294 86.1196 387.019 86.2296 386.689 86.2296H374.314C373.324 86.2296 372.572 85.8079 372.059 84.9646L367.274 77.5946L362.709 84.9646C362.196 85.8079 361.444 86.2296 360.454 86.2296H348.464C348.134 86.2296 347.841 86.1196 347.584 85.8996C347.364 85.6429 347.254 85.3862 347.254 85.1296C347.254 84.8362 347.309 84.5979 347.419 84.4146L358.969 66.5396L348.574 49.5446C348.464 49.3246 348.409 49.0862 348.409 48.8296C348.409 48.5729 348.519 48.3346 348.739 48.1146C348.996 47.8579 349.289 47.7296 349.619 47.7296H361.554C362.581 47.7296 363.351 48.1879 363.864 49.1046L367.714 55.8146L371.894 49.1046C372.407 48.1879 373.177 47.7296 374.204 47.7296H385.589C385.919 47.7296 386.194 47.8579 386.414 48.1146C386.671 48.3346 386.799 48.5912 386.799 48.8846C386.799 49.1412 386.744 49.3612 386.634 49.5446L376.019 66.3746L387.734 84.4146Z" fill="black"></path>
	</symbol>


<!-- ===== 1. HEADER ===== -->

	<!-- nav -->
	<symbol id="nav" viewBox="0 0 512 512">
		<path d="m187.644531 0c-103.46875 0-187.644531 84.175781-187.644531 187.644531 0 47.53125 29.949219 114.6875 89.019531 199.605469 43.175781 62.074219 85.640625 110.109375 87.429688 112.125l11.195312 12.625 11.199219-12.625c1.785156-2.015625 44.25-50.050781 87.429688-112.125 59.066406-84.917969 89.019531-152.074219 89.019531-199.605469 0-103.46875-84.179688-187.644531-187.648438-187.644531zm74.21875 369.914062c-29.183593 41.984376-58.679687 78.117188-74.21875 96.550782-15.5-18.382813-44.886719-54.378906-74.050781-96.308594-54.730469-78.679688-83.660156-141.792969-83.660156-182.511719 0-86.960937 70.75-157.710937 157.710937-157.710937 86.964844 0 157.710938 70.75 157.710938 157.710937 0 40.675781-28.871094 103.703125-83.492188 182.269531zm0 0" fill="#1b5ebd"></path> 
		<path d="m187.644531 69.351562c-61.066406 0-110.746093 49.679688-110.746093 110.746094s49.679687 110.75 110.746093 110.75c61.070313 0 110.75-49.683594 110.75-110.75s-49.679687-110.746094-110.75-110.746094zm0 191.5625c-44.558593 0-80.8125-36.253906-80.8125-80.816406 0-44.558594 36.253907-80.8125 80.8125-80.8125 44.5625 0 80.816407 36.253906 80.816407 80.8125 0 44.5625-36.253907 80.816406-80.816407 80.816406zm0 0" fill="#1b5ebd"></path>
	</symbol>

	<!-- phone -->
	<symbol id="phone" viewBox="0 0 682 682.66651">
		<path d="m75.71875 640c-18.734375 0-36.972656-6.992188-50.894531-19.691406-15.566407-14.195313-24.492188-34.425782-24.492188-55.488282v-100.933593c0-38.304688 28.585938-70.414063 66.492188-74.683594 22.308593-2.515625 44.464843-7.109375 65.863281-13.652344 26.78125-8.191406 55.628906-1.082031 75.273438 18.558594l40.898437 40.894531c78.324219-42.851562 143.636719-108.164062 186.484375-186.472656l-40.902344-40.898438c-19.640625-19.644531-26.75-48.492187-18.554687-75.277343 6.542969-21.398438 11.136719-43.554688 13.652343-65.859375 4.265626-37.910156 36.375-66.496094 74.679688-66.496094h100.929688c21.066406 0 41.296874 8.925781 55.492187 24.492188 14.257813 15.625 21.316406 36.691406 19.375 57.789062-6.664063 72.421875-25.859375 142.347656-57.054687 207.839844-30.324219 63.671875-71.074219 121.328125-121.125 171.378906-50.046876 50.046875-107.707032 90.804688-171.378907 121.125-65.496093 31.191406-135.421875 50.390625-207.84375 57.058594-2.300781.214844-4.597656.316406-6.894531.316406zm79.222656-217.785156c-2.53125 0-5.105468.378906-7.625 1.148437-24.335937 7.445313-49.53125 12.667969-74.894531 15.527344-12.589844 1.417969-22.089844 12.164063-22.089844 24.996094v100.933593c0 7.148438 2.910157 13.734376 8.191407 18.546876 5.339843 4.878906 12.269531 7.195312 19.503906 6.523437 271.769531-25.011719 487.183594-240.429687 512.199218-512.195313.667969-7.234374-1.652343-14.164062-6.523437-19.507812-4.820313-5.277344-11.40625-8.1875-18.554687-8.1875h-100.929688c-12.832031 0-23.578125 9.496094-25 22.089844-2.855469 25.363281-8.078125 50.558594-15.519531 74.894531-2.773438 9.0625-.441407 18.753906 6.097656 25.292969l66.589844 66.589844-8.007813 16.097656c-49.929687 100.355468-132.714844 183.128906-233.089844 233.070312l-16.097656 8.015625-66.585937-66.589843c-4.714844-4.714844-11.074219-7.246094-17.664063-7.246094zm0 0" fill="#1b5ebd"></path>
	</symbol>

	<!-- mail -->
	<symbol id="mail" viewBox="0 0 512 512">
		<path d="M467,76H45C20.137,76,0,96.262,0,121v270c0,24.885,20.285,45,45,45h422c24.655,0,45-20.03,45-45V121 C512,96.306,491.943,76,467,76z M460.698,106c-9.194,9.145-167.415,166.533-172.878,171.967c-8.5,8.5-19.8,13.18-31.82,13.18 s-23.32-4.681-31.848-13.208C220.478,274.284,64.003,118.634,51.302,106H460.698z M30,384.894V127.125L159.638,256.08L30,384.894z M51.321,406l129.587-128.763l22.059,21.943c14.166,14.166,33,21.967,53.033,21.967c20.033,0,38.867-7.801,53.005-21.939 l22.087-21.971L460.679,406H51.321z M482,384.894L352.362,256.08L482,127.125V384.894z" fill="#1b5ebd"></path>
	</symbol>

	<!-- whatsapp-->
	<symbol id="whatsapp" viewBox="0 0 682 682.66669">
		<path d="m544.386719 93.007812c-59.875-59.945312-139.503907-92.9726558-224.335938-93.007812-174.804687 0-317.070312 142.261719-317.140625 317.113281-.023437 55.894531 14.578125 110.457031 42.332032 158.550781l-44.992188 164.335938 168.121094-44.101562c46.324218 25.269531 98.476562 38.585937 151.550781 38.601562h.132813c174.785156 0 317.066406-142.273438 317.132812-317.132812.035156-84.742188-32.921875-164.417969-92.800781-224.359376zm-224.335938 487.933594h-.109375c-47.296875-.019531-93.683594-12.730468-134.160156-36.742187l-9.621094-5.714844-99.765625 26.171875 26.628907-97.269531-6.269532-9.972657c-26.386718-41.96875-40.320312-90.476562-40.296875-140.28125.054688-145.332031 118.304688-263.570312 263.699219-263.570312 70.40625.023438 136.589844 27.476562 186.355469 77.300781s77.15625 116.050781 77.132812 186.484375c-.0625 145.34375-118.304687 263.59375-263.59375 263.59375zm144.585938-197.417968c-7.921875-3.96875-46.882813-23.132813-54.148438-25.78125-7.257812-2.644532-12.546875-3.960938-17.824219 3.96875-5.285156 7.929687-20.46875 25.78125-25.09375 31.066406-4.625 5.289062-9.242187 5.953125-17.167968 1.984375-7.925782-3.964844-33.457032-12.335938-63.726563-39.332031-23.554687-21.011719-39.457031-46.960938-44.082031-54.890626-4.617188-7.9375-.039062-11.8125 3.476562-16.171874 8.578126-10.652344 17.167969-21.820313 19.808594-27.105469 2.644532-5.289063 1.320313-9.917969-.664062-13.882813-1.976563-3.964844-17.824219-42.96875-24.425782-58.839844-6.4375-15.445312-12.964843-13.359374-17.832031-13.601562-4.617187-.230469-9.902343-.277344-15.1875-.277344-5.28125 0-13.867187 1.980469-21.132812 9.917969-7.261719 7.933594-27.730469 27.101563-27.730469 66.105469s28.394531 76.683594 32.355469 81.972656c3.960937 5.289062 55.878906 85.328125 135.367187 119.648438 18.90625 8.171874 33.664063 13.042968 45.175782 16.695312 18.984374 6.03125 36.253906 5.179688 49.910156 3.140625 15.226562-2.277344 46.878906-19.171875 53.488281-37.679687 6.601563-18.511719 6.601563-34.375 4.617187-37.683594-1.976562-3.304688-7.261718-5.285156-15.183593-9.253906zm0 0" fill-rule="evenodd" fill="#1b5ebd"></path>
	</symbol>

	<!-- telegramm-->
	<symbol id="telegramm" viewBox="0 0 512.00011 512">
		<path d="m504.09375 11.859375c-6.253906-7.648437-15.621094-11.859375-26.378906-11.859375-5.847656 0-12.042969 1.230469-18.410156 3.664062l-433.398438 165.441407c-23 8.777343-26.097656 21.949219-25.8984375 29.019531s4.0390625 20.046875 27.4999995 27.511719c.140626.042969.28125.085937.421876.125l89.898437 25.726562 48.617187 139.023438c6.628907 18.953125 21.507813 30.726562 38.835938 30.726562 10.925781 0 21.671875-4.578125 31.078125-13.234375l55.605469-51.199218 80.652344 64.941406c.007812.007812.019531.011718.027343.019531l.765625.617187c.070313.054688.144532.113282.214844.167969 8.964844 6.953125 18.75 10.625 28.308594 10.628907h.003906c18.675781 0 33.546875-13.824219 37.878906-35.214844l71.011719-350.640625c2.851563-14.074219.460937-26.667969-6.734375-35.464844zm-356.191406 234.742187 173.441406-88.605468-107.996094 114.753906c-1.769531 1.878906-3.023437 4.179688-3.640625 6.683594l-20.824219 84.351562zm68.132812 139.332032c-.71875.660156-1.441406 1.25-2.164062 1.792968l19.320312-78.25 35.144532 28.300782zm265.390625-344.566406-71.011719 350.644531c-.683593 3.355469-2.867187 11.164062-8.480468 11.164062-2.773438 0-6.257813-1.511719-9.824219-4.257812l-91.390625-73.585938c-.011719-.011719-.027344-.023437-.042969-.03125l-54.378906-43.789062 156.175781-165.949219c5-5.3125 5.453125-13.449219 1.074219-19.285156-4.382813-5.835938-12.324219-7.671875-18.820313-4.351563l-256.867187 131.226563-91.121094-26.070313 433.265625-165.390625c3.660156-1.398437 6.214844-1.691406 7.710938-1.691406.917968 0 2.550781.109375 3.15625.855469.796875.972656 1.8125 4.289062.554687 10.511719zm0 0" fill="#1b5ebd"></path>
	</symbol>



<!-- ===== 2. HERO SECTION ===== -->

	<!-- plus (without bluel fill around)-->
	<symbol id="plus" viewBox="0 0 25 25" width="100%" height="100%" style="display:block;">
		<g stroke="none" stroke-width="1.5" fill="none" fill-rule="evenodd" stroke-linecap="square">
			<g stroke="#ffffff">
				<g transform="translate(7.500000, 7.700000)">
					<path d="M5,0 L5,9.28571429"></path>
					<path d="M0.357142857,4.64285714 L9.64285714,4.64285714"></path>
				</g>
			</g>
		</g>
	</symbol>


<!-- ===== 3. SERVICE SECTION ===== -->

	<!-- service-basic-icon-1 -->
	<symbol id="service-basic-icon-1" viewBox="0 0 360 90" fill="none">
		<path d="M173.333 26.6667L166.667 23.3334V76.6667L173.333 73.3334" stroke="#1B5EBD" stroke-width="2" stroke-linecap="round" stroke-linejoin="round"></path> 
		<path d="M153.333 26.6667L146.667 23.3334V76.6667L153.333 73.3334" stroke="#1B5EBD" stroke-width="2" stroke-linecap="round" stroke-linejoin="round"></path> 
		<path fill-rule="evenodd" clip-rule="evenodd" d="M213.333 66.6667L186.667 76.6667V23.3334L213.333 33.3334V66.6667Z" stroke="#1B5EBD" stroke-width="2" stroke-linecap="round" stroke-linejoin="round"></path>
	</symbol>

	<!-- service-basic-icon-2 -->
	<symbol id="service-basic-icon-2" viewBox="0 0 360 90" fill="none">
		<path d="M180.786 80C180.254 80 179.792 79.8399 179.468 79.5198L179.445 79.4969C179.445 79.4969 178.196 78.3537 177.155 77.1875C176.669 76.6387 176.207 76.0442 175.883 75.6098L175.42 74.9695L175.143 74.9238C172.853 74.4893 170.655 73.7576 168.573 72.7515L167.556 72.2485L167.533 73.3689C167.533 73.4832 167.533 73.5747 167.533 73.6662C167.533 74.6951 167.579 75.7698 167.579 75.7927C167.602 76.0442 167.509 76.2729 167.347 76.4558C167.162 76.6387 166.862 76.7759 166.538 76.7759C166.33 76.7759 166.122 76.7302 165.936 76.6387L165.428 76.3872L162.976 74.9238L162.837 74.8323C162.421 74.5122 162.097 74.0777 162.004 73.6204L161.796 72.5229C161.75 72.2485 161.68 71.9284 161.634 71.5854C161.588 71.1966 161.542 70.7851 161.519 70.3735C161.449 69.436 161.426 68.6128 161.403 68.2241C161.403 68.0869 161.403 67.9726 161.403 67.8582V67.561L161.195 67.3552C159.622 65.686 158.257 63.811 157.193 61.7988L156.661 60.7927L155.967 61.6845C155.921 61.7531 155.851 61.8216 155.805 61.9131C155.158 62.7591 154.556 63.6738 154.556 63.6966C154.394 63.9482 154.117 64.1082 153.793 64.1082C153.353 64.1082 152.96 63.8338 152.752 63.3765L151.989 61.8216C151.642 60.9527 151.341 60.1296 151.341 60.1296C151.156 59.6494 151.156 59.1006 151.341 58.689C151.341 58.6662 151.387 58.5747 151.48 58.4146L151.827 57.7287C152.151 57.0884 152.544 56.3567 152.914 55.7622C153.238 55.1906 153.631 54.6418 153.955 54.2073L154.51 53.4527L154.464 53.1784C154.325 52.1037 154.255 51.029 154.255 50C154.255 48.7881 154.348 47.5534 154.533 46.3415L154.695 45.221L153.33 45.6326C152.498 45.8841 151.665 46.2043 151.341 46.3186H151.318C151.225 46.3643 151.11 46.3872 150.994 46.3872C150.716 46.3872 150.439 46.2729 150.277 46.0671C150.046 45.7927 149.953 45.4268 150.023 45.0381L150.208 43.9406L150.809 41.5854C150.925 41.0823 151.272 40.6479 151.711 40.3963L152.821 39.8018C153.33 39.5274 153.978 39.2073 154.672 38.9329C155.597 38.5671 156.476 38.247 157.077 38.064L157.355 37.9726L157.494 37.721C158.604 35.7088 159.992 33.8796 161.611 32.2332L162.397 31.4329L161.056 30.9756C160.061 30.6326 159.044 30.3811 158.974 30.3582C158.673 30.2896 158.419 30.0381 158.326 29.718C158.211 29.3064 158.35 28.872 158.697 28.5518L160.2 27.2027C160.478 26.9512 160.732 26.7226 160.963 26.5625L161.403 26.2424C161.773 25.968 162.236 25.8079 162.675 25.8079C162.721 25.8079 162.768 25.8079 162.814 25.8079L163.808 25.9223C164.572 26.0366 165.381 26.1966 166.075 26.3567C166.954 26.5396 167.671 26.7454 168.203 26.9284L168.782 27.1341L169.059 27.0198C171.164 26.0366 173.385 25.3506 175.675 24.9848L176.808 24.8018L176.16 23.8872L175.998 23.6585C175.397 22.8125 174.703 21.9665 174.68 21.9436C174.472 21.6921 174.425 21.372 174.541 21.0518C174.68 20.6631 175.073 20.3887 175.536 20.3201L176.091 20.2287C176.16 20.2287 176.23 20.2058 176.299 20.2058L176.368 20.1829C176.646 20.1372 176.97 20.0915 177.317 20.0915L179.19 20C179.722 20 180.185 20.1601 180.509 20.4802L180.532 20.503C180.532 20.503 181.758 21.6463 182.822 22.8125C183.331 23.3613 183.793 24.0015 184.094 24.4131L184.557 25.0534L184.834 25.0991C187.124 25.5335 189.322 26.2652 191.403 27.2942L192.421 27.7973L192.444 26.6768C192.444 26.5625 192.444 26.471 192.444 26.3567C192.444 25.3049 192.398 24.253 192.398 24.2302C192.375 23.9787 192.467 23.75 192.629 23.5671C192.814 23.3841 193.115 23.247 193.439 23.247C193.647 23.247 193.855 23.2927 194.04 23.3841L194.549 23.6357L197.001 25.0991L197.14 25.1905C197.556 25.5107 197.88 25.9451 197.973 26.4024L198.181 27.5C198.227 27.7744 198.296 28.0945 198.343 28.4375C198.389 28.8262 198.435 29.2378 198.458 29.6494C198.528 30.5869 198.551 31.4101 198.574 31.7988C198.574 31.936 198.574 32.0732 198.574 32.1875V32.4848L198.782 32.6905C200.355 34.3598 201.697 36.2119 202.761 38.2241L203.293 39.2073L203.987 38.3156C204.056 38.2241 204.125 38.1555 204.172 38.064C204.727 37.3323 205.259 36.5549 205.398 36.3262C205.583 36.0518 205.86 35.8918 206.184 35.8918C206.624 35.8918 207.017 36.1662 207.225 36.6235L207.988 38.2012C208.335 39.0701 208.636 39.8933 208.636 39.8933C208.821 40.3735 208.821 40.9223 208.636 41.3338C208.636 41.3567 208.59 41.4482 208.497 41.6082L208.15 42.2942C207.826 42.9345 207.433 43.6433 207.063 44.2607C206.739 44.8323 206.346 45.3811 206.022 45.8155L205.444 46.593L205.49 46.8674C205.629 47.9192 205.698 48.971 205.698 50C205.698 51.2119 205.606 52.4695 205.421 53.6814L205.259 54.8018L206.346 54.4588L206.647 54.3674C207.479 54.1159 208.335 53.7957 208.659 53.6585H208.682C208.775 53.6128 208.89 53.5899 209.006 53.5899C209.284 53.5899 209.561 53.7043 209.723 53.9101C209.954 54.1845 210.047 54.5503 209.977 54.939L209.792 56.0366L209.191 58.3918C209.075 58.8948 208.728 59.3293 208.289 59.5808L207.156 60.1753C206.67 60.4268 206.022 60.7698 205.328 61.0442C204.38 61.4329 203.478 61.7302 202.876 61.9131L202.599 62.0046L202.46 62.2561C201.35 64.2454 199.962 66.0976 198.343 67.721L197.556 68.5213L198.62 68.8872C198.713 68.9329 198.828 68.9558 198.921 69.0015C199.916 69.3445 200.933 69.596 201.003 69.6189C201.303 69.6875 201.558 69.939 201.65 70.2591C201.766 70.6707 201.627 71.1052 201.28 71.4253L199.777 72.7744C199.499 73.0259 199.245 73.2546 199.013 73.4146L198.574 73.7348C198.204 74.0091 197.741 74.1692 197.325 74.1692C197.279 74.1692 197.209 74.1692 197.163 74.1692L196.145 74.0549C195.382 73.9406 194.572 73.7805 193.878 73.6204C192.999 73.4375 192.282 73.2317 191.75 73.0488L191.149 72.843L190.871 72.9573C188.79 73.9406 186.569 74.6265 184.279 74.9924L183.146 75.1753L183.793 76.0899C183.863 76.1814 183.909 76.25 183.955 76.3415C184.58 77.1875 185.251 78.0335 185.251 78.0335C185.459 78.2851 185.505 78.628 185.389 78.9253C185.251 79.314 184.857 79.5884 184.395 79.657L183.84 79.7485C183.77 79.7485 183.701 79.7713 183.632 79.7713L183.539 79.7942C183.261 79.8399 182.938 79.8857 182.591 79.8857L180.786 80Z" stroke="#1B5EBD" stroke-width="2"></path> 
		<path d="M180 57C183.866 57 187 53.866 187 50C187 46.134 183.866 43 180 43C176.134 43 173 46.134 173 50C173 53.866 176.134 57 180 57Z" stroke="#1B5EBD" stroke-width="2"></path>
	</symbol>

	<!-- service-basic-icon-3 -->
	<symbol id="service-basic-icon-3" viewBox="0 0 512 512">
		<path style="fill:none;stroke:#1b5ebd;stroke-miterlimit:10;stroke-width:15px;" d="M468.5331,119.83467,447.36672,94.15692,457.94992,81.318c5.84493-7.09071,15.32143-7.09071,21.16636,0l0,0c5.84493,7.0907,5.84493,18.587,0,25.67772Z"></path> 
		<rect style="fill:none;stroke:#1b5ebd;stroke-miterlimit:10;stroke-width:15px;" x="53.49192" y="393.0305" width="376.76899" height="99.36369" rx="23.87685"></rect> 
		<path style="fill:none;stroke:#1b5ebd;stroke-miterlimit:10;stroke-width:15px;" d="M280.7819,181.88265v99.36369H77.21771c-11.97251,0-21.67814-11.77427-21.67814-26.29858V208.18123c0-14.5243,9.70563-26.29858,21.67814-26.29858Z"></path> 
		<path style="fill:none;stroke:#1b5ebd;stroke-miterlimit:10;stroke-width:15px;" d="M466.06509,116.26713,450.30748,97.151c-5.39022-6.53907-14.12947-6.53907-19.51969,0l-16.11017,19.54388,35.27729,42.79625,16.11018-19.54388A19.35974,19.35974,0,0,0,466.06509,116.26713Z"></path> 
		<polygon style="fill:none;stroke:#1b5ebd;stroke-miterlimit:10;stroke-width:15px;" points="325.705 246.124 315.305 284.078 347.418 271.55 443.023 153.51 419.076 125.508 325.705 246.124 325.705 246.124"></polygon> 
		<line style="fill:none;stroke:#1b5ebd;stroke-miterlimit:10;stroke-width:15px;" x1="387.0467" y1="160.73226" x2="400.3506" y2="176.87174"></line> 
		<line style="fill:none;stroke:#1b5ebd;stroke-miterlimit:10;stroke-width:15px;" x1="370.41682" y1="180.90661" x2="383.72073" y2="197.04608"></line> 
		<line style="fill:none;stroke:#1b5ebd;stroke-miterlimit:10;stroke-width:15px;" x1="353.78695" y1="201.08095" x2="367.09085" y2="217.22043"></line> 
		<path style="fill:none;stroke:#1b5ebd;stroke-miterlimit:10;stroke-width:15px;" d="M315.4624,341.75883a21.59183,21.59183,0,0,1,1.76781,8.69433c0,9.7956-6.16345,17.73641-13.76026,17.73641s-13.76026-7.94081-13.76026-17.73641a21.83772,21.83772,0,0,1,2.05448-9.33191,6.53382,6.53382,0,0,1,.47779-1.565l11.228-23.53263,11.56244,24.3441A3.90148,3.90148,0,0,1,315.4624,341.75883Z"></path>
	</symbol>

	<!-- service-basic-icon-4 -->
	<symbol id="service-basic-icon-4" viewBox="0 0 512 512">
		<path style="fill:none;stroke-miterlimit:10;stroke-width:15px;stroke:#1b5ebd;stroke-linecap:round;" d="M448.51226,395.07557a138.77972,138.77972,0,0,0,15.62988-64.20805V80.87609a25.99822,25.99822,0,0,0-25.97763-25.97764H74.47763A25.99822,25.99822,0,0,0,48.5,80.87609V444.563a25.99822,25.99822,0,0,0,25.97763,25.97763H324.46906a139.12633,139.12633,0,0,0,92.2206-34.76673"></path> 
		<line style="fill:none;stroke-miterlimit:10;stroke-width:15px;stroke:#1b5ebd;stroke-linecap:round;" x1="285.59244" y1="275.67694" x2="413.12276" y2="399.1564"></line> <circle style="fill:none;stroke-miterlimit:10;stroke-width:15px;stroke:#1b5ebd;stroke-linecap:round;" cx="434.84683" cy="417.17717" r="25.97763"></circle> 
		<circle style="fill:none;stroke-miterlimit:10;stroke-width:15px;stroke:#1b5ebd;stroke-linecap:round;" cx="266.88006" cy="254.54568" r="25.97763"></circle> 
		<text style="fill:none;stroke-miterlimit:10;stroke-width:15px;font-size:117px;fill:#1b5ebd;stroke-linejoin:round;font-family:Circe-Bold, Circe;font-weight:700;" transform="translate(259.1819 432.39795)">R</text>
	</symbol>

	<!-- service-basic-icon-5 -->
	<symbol id="service-basic-icon-5" viewBox="0 0 512 512">
		<path style="stroke-miterlimit:10;fill:none;stroke:#1b5ebd;stroke-linecap:round;stroke-width:15px;" d="M284,55.93381l154.87228-.4562a25.14265,25.14265,0,0,1,25.14265,25.14265V445.85735A25.14265,25.14265,0,0,1,438.87228,471H73.63518a25.14264,25.14264,0,0,1-25.14264-25.14265V80.62023C49,60.5,52.11411,55.5,66,55.5"></path> 
		<line style="stroke-miterlimit:10;fill:none;stroke:#1b5ebd;stroke-linecap:round;stroke-width:15px;" x1="132" y1="55.04786" x2="218.03789" y2="55.47761"></line> 
		<polyline style="stroke-miterlimit:10;fill:none;stroke:#1b5ebd;stroke-linecap:round;stroke-width:15px;" points="98 42.5 98.269 193.985 249.761 193.985 249.761 36"></polyline>
	</symbol>

	<!-- service-basic-icon-6-->
	<symbol id="service-basic-icon-6" viewBox="0 0 512 512">
		<path style="fill:none;stroke:#1b5ebd;stroke-linecap:round;stroke-miterlimit:10;stroke-width:15px;" d="M456,403.5v46c0,13.78081-9.8064,25.27586-24.22144,25.27586H66.368c-14.415,0-26.10076-11.17155-26.10076-24.95235V218.5"></path> 
		<path style="fill:none;stroke:#1b5ebd;stroke-linecap:round;stroke-miterlimit:10;stroke-width:15px;" d="M40.26724,152.5V85.2931A25.96551,25.96551,0,0,1,66.23276,59.32759H429.75A25.96551,25.96551,0,0,1,455.71552,85.2931V338.5"></path> 
		<path style="fill:none;stroke:#1b5ebd;stroke-linecap:round;stroke-miterlimit:10;stroke-width:15px;stroke-dasharray:24;" d="M25,184.5c73.38544.96434,130.18737,24.14793,163.34354,43.60345,70.43316,41.32909,92.30541,89.51489,158.84353,121.17241C406.91279,377.69215,453.36408,375.31128,488,368.5"></path>
	</symbol>

	<!-- service-basic-icon-7 -->
	<symbol id="service-basic-icon-7" viewBox="0 0 360 80" fill="none">
		<path d="M192 13H167V29H192V13Z" stroke="#1B5EBD" stroke-width="2"></path> <path d="M169 29H190L187.549 34.6033C186.912 36.0592 185.473 37 183.884 37H175.472C173.957 37 172.572 36.144 171.894 34.7889L169 29Z" stroke="#1B5EBD" stroke-width="2"></path> <path d="M175 37V36H174V37H175ZM185 37H186V36H185V37ZM175 42.8334H174V44.2208L175.316 43.7821L175 42.8334ZM185 39.5L185.316 40.4487L186 40.2208V39.5H185ZM175 45.8334L174.684 44.8847L174 45.1126V45.8334H175ZM185 42.5H186V41.1126L184.684 41.5514L185 42.5ZM175 50H174V51.3874L175.316 50.9487L175 50ZM185 46.6667L185.316 47.6154L186 47.3874V46.6667H185ZM175 53L174.684 52.0513L174 52.2792V53H175ZM185 49.6667H186V48.2792L184.684 48.718L185 49.6667ZM175 57.5H174V58.8874L175.316 58.4487L175 57.5ZM185 54.1667L185.316 55.1153L186 54.8874V54.1667H185ZM185 57.1667H186V55.7792L184.684 56.218L185 57.1667ZM175 60.5L174.684 59.5513L174 59.7792V60.5H175ZM175 63H174V63.4806L174.375 63.7809L175 63ZM180 67L179.375 67.7809L180 68.2806L180.625 67.7809L180 67ZM185 63L185.625 63.7809L186 63.4806V63H185ZM175 38H185V36H175V38ZM176 42.8334V37H174V42.8334H176ZM184.684 38.5514L174.684 41.8847L175.316 43.7821L185.316 40.4487L184.684 38.5514ZM184 37V39.5H186V37H184ZM175.316 46.7821L185.316 43.4487L184.684 41.5514L174.684 44.8847L175.316 46.7821ZM176 50V45.8334H174V50H176ZM184.684 45.718L174.684 49.0513L175.316 50.9487L185.316 47.6154L184.684 45.718ZM184 42.5V46.6667H186V42.5H184ZM175.316 53.9487L185.316 50.6154L184.684 48.718L174.684 52.0513L175.316 53.9487ZM176 57.5V53H174V57.5H176ZM175.316 58.4487L185.316 55.1153L184.684 53.218L174.684 56.5513L175.316 58.4487ZM184 49.6667V54.1667H186V49.6667H184ZM184.684 56.218L174.684 59.5513L175.316 61.4487L185.316 58.1153L184.684 56.218ZM176 63V60.5H174V63H176ZM180.625 66.2191L175.625 62.2191L174.375 63.7809L179.375 67.7809L180.625 66.2191ZM184.375 62.2191L179.375 66.2191L180.625 67.7809L185.625 63.7809L184.375 62.2191ZM184 57.1667V63H186V57.1667H184Z" fill="#1B5EBD"></path> <path d="M146 59H169.543L171.543 71H188.528L190.528 59H214" stroke="#1B5EBD" stroke-width="2"></path>
	</symbol>

	<!-- service-basic-icon-8 -->
	<symbol id="service-basic-icon-8" viewBox="0 0 513 448" fill="none">
		<path d="M511.548 308.263L501.286 280.073C500.584 278.144 499.172 276.681 497.454 275.865C497.439 275.858 497.424 275.849 497.409 275.842C497.297 275.789 497.18 275.748 497.065 275.701C496.957 275.657 496.851 275.607 496.741 275.568C496.715 275.558 496.687 275.552 496.66 275.544C495.097 275.009 493.348 274.98 491.675 275.59L467.15 284.509L414.979 141.161C414.978 141.157 414.975 141.154 414.974 141.151L394.46 84.783C393.38 81.833 390.55 79.852 387.41 79.852C386.54 79.852 385.67 80.002 384.85 80.302C380.96 81.712 378.95 86.032 380.36 89.912L398.321 139.244L302.006 174.298C302.005 174.298 302.003 174.298 302.001 174.299C301.998 174.3 301.996 174.302 301.993 174.302L243.275 195.672L203.939 87.617L255.626 68.807L266.742 99.341C267.812 102.291 270.642 104.282 273.782 104.282C274.662 104.282 275.522 104.132 276.352 103.821L313.941 90.141C315.821 89.461 317.321 88.081 318.171 86.271C318.799 84.925 319.004 83.458 318.795 82.025C318.794 82.017 318.794 82.009 318.793 82.002C318.764 81.807 318.722 81.611 318.677 81.418C318.664 81.363 318.657 81.311 318.644 81.256C318.583 81.013 318.509 80.772 318.422 80.532L307.31 49.997L358.986 31.19L370.1 61.721C371.18 64.671 374.01 66.661 377.15 66.661C378.02 66.661 378.89 66.511 379.72 66.201C383.6 64.791 385.61 60.48 384.2 56.591L370.52 19.002C369.575 16.421 367.291 14.582 364.63 14.162C364.25 14.102 363.862 14.071 363.47 14.071C362.6 14.071 361.73 14.221 360.91 14.521L295.166 38.452C295.155 38.456 295.143 38.457 295.132 38.461C295.112 38.468 295.094 38.478 295.074 38.485L257.609 52.123C257.587 52.131 257.565 52.133 257.543 52.141C257.506 52.155 257.471 52.173 257.434 52.187L191.765 76.09C189.885 76.77 188.385 78.15 187.535 79.96C186.685 81.78 186.595 83.819 187.285 85.7L231.743 207.855L274.496 325.327C269.076 323.671 263.385 322.741 257.557 322.628L149.248 25.046C142.176 5.61703 120.616 -4.43597 101.185 2.63403C101.182 2.63503 101.179 2.63703 101.176 2.63803L4.95299 37.342C4.95199 37.343 4.94999 37.343 4.94799 37.344C4.94299 37.346 4.93799 37.347 4.93199 37.349C4.75899 37.412 4.59499 37.487 4.42999 37.561C4.36699 37.589 4.30099 37.612 4.23899 37.642C4.07699 37.719 3.92299 37.809 3.76899 37.897C3.70599 37.933 3.63899 37.964 3.57699 38.003C3.42899 38.093 3.29099 38.193 3.15099 38.292C3.08899 38.336 3.02299 38.376 2.96299 38.421C2.83299 38.52 2.71199 38.627 2.58899 38.734C2.52699 38.789 2.45999 38.838 2.39999 38.894C2.28399 39 2.17799 39.117 2.06999 39.23C2.01099 39.293 1.94799 39.35 1.89099 39.414C1.78899 39.529 1.69599 39.652 1.60099 39.773C1.54699 39.841 1.48799 39.907 1.43699 39.978C1.35099 40.096 1.27499 40.22 1.19599 40.343C1.14499 40.423 1.08899 40.499 1.04099 40.58C0.96899 40.702 0.90699 40.83 0.84199 40.956C0.79699 41.043 0.74699 41.128 0.70499 41.217C0.64699 41.341 0.59999 41.469 0.54799 41.596C0.50899 41.693 0.46499 41.785 0.43099 41.883C0.38699 42.007 0.35299 42.135 0.31599 42.261C0.28499 42.365 0.24899 42.468 0.22199 42.574C0.19099 42.698 0.16999 42.826 0.14499 42.952C0.12299 43.062 0.0959896 43.172 0.0789896 43.283C0.0589896 43.411 0.0519896 43.541 0.0389896 43.67C0.0279896 43.782 0.0109896 43.894 0.00498962 44.007C-0.00201038 44.139 0.00298962 44.271 0.00298962 44.403C0.00298962 44.516 -0.00301038 44.629 0.00198962 44.742C0.00798962 44.876 0.0269896 45.011 0.0399896 45.145C0.0509896 45.256 0.0569896 45.368 0.0729896 45.48C0.0929896 45.613 0.12499 45.746 0.15199 45.879C0.17499 45.992 0.19199 46.106 0.21999 46.219C0.25299 46.352 0.29999 46.483 0.34099 46.615C0.37499 46.724 0.40199 46.835 0.44099 46.944C0.44199 46.946 0.44299 46.949 0.44399 46.951C0.44499 46.956 0.44599 46.96 0.44799 46.965L10.709 75.155C10.786 75.367 10.892 75.56 10.985 75.761C11.058 75.917 11.117 76.083 11.2 76.232C11.317 76.443 11.458 76.631 11.593 76.828C11.678 76.951 11.75 77.086 11.842 77.203C12.003 77.41 12.187 77.594 12.367 77.78C12.451 77.867 12.525 77.966 12.613 78.049C12.816 78.24 13.039 78.406 13.26 78.572C13.34 78.633 13.412 78.704 13.494 78.76C13.733 78.925 13.989 79.064 14.245 79.199C14.321 79.239 14.391 79.291 14.468 79.329C14.73 79.457 15.005 79.556 15.28 79.652C15.36 79.68 15.435 79.72 15.516 79.746C15.798 79.835 16.088 79.892 16.38 79.948C16.46 79.963 16.538 79.991 16.619 80.003C16.993 80.062 17.374 80.091 17.758 80.091C17.97 80.091 18.183 80.081 18.397 80.064C18.441 80.06 18.484 80.051 18.528 80.047C18.698 80.029 18.867 80.01 19.037 79.981C19.115 79.967 19.193 79.946 19.271 79.93C19.406 79.902 19.541 79.876 19.675 79.84C19.818 79.803 19.959 79.754 20.101 79.707C20.168 79.686 20.235 79.668 20.301 79.644L20.309 79.641C20.313 79.64 20.317 79.638 20.321 79.637C20.324 79.636 20.327 79.634 20.33 79.633L109.517 47.465L215.28 338.038C196.414 354.54 188.557 381.564 197.632 406.495C206.588 431.1 230.191 447.633 256.366 447.633C263.648 447.633 270.838 446.36 277.737 443.849C293.424 438.139 305.948 426.664 313.004 411.534C316.754 403.491 318.701 394.93 318.863 386.316L507.064 317.877C507.064 317.877 507.065 317.877 507.066 317.876H507.067C507.117 317.858 507.163 317.834 507.212 317.815C507.403 317.741 507.592 317.666 507.773 317.578C507.85 317.541 507.921 317.496 507.997 317.456C508.145 317.379 508.293 317.304 508.434 317.218C508.514 317.168 508.588 317.11 508.666 317.059C508.794 316.973 508.925 316.89 509.047 316.798C509.086 316.768 509.12 316.734 509.158 316.704C509.312 316.581 509.465 316.458 509.608 316.325C509.632 316.299 509.654 316.274 509.678 316.251C509.829 316.105 509.977 315.958 510.116 315.802C510.144 315.771 510.167 315.736 510.195 315.704C510.325 315.552 510.452 315.398 510.569 315.237C510.582 315.22 510.592 315.201 510.604 315.183C510.731 315.004 510.853 314.822 510.964 314.633C510.984 314.599 511 314.562 511.02 314.527C511.119 314.353 511.214 314.178 511.299 313.997C511.332 313.926 511.358 313.851 511.388 313.779C511.452 313.631 511.517 313.483 511.572 313.331C511.609 313.226 511.636 313.118 511.668 313.012C511.706 312.889 511.749 312.767 511.78 312.642C511.826 312.457 511.86 312.269 511.892 312.081C511.9 312.031 511.914 311.983 511.921 311.934C512.1 310.738 511.991 309.48 511.548 308.263ZM293.217 55.127L301.762 78.617L278.27 87.167L269.72 63.678L293.217 55.127ZM337.677 177.281L346.228 200.769L322.729 209.321L314.181 185.832L337.677 177.281ZM248.409 209.768L300.088 190.961L311.204 221.495C312.274 224.445 315.104 226.434 318.254 226.434C319.124 226.434 319.984 226.275 320.814 225.974L358.403 212.294C362.293 210.884 364.303 206.574 362.883 202.684L351.768 172.152L403.455 153.341L453.06 289.628L303.421 344.045C300.611 340.836 297.496 337.922 294.116 335.359L248.409 209.768ZM121.057 35.305C121.013 35.185 120.958 35.072 120.909 34.954C120.86 34.839 120.816 34.72 120.762 34.607C120.713 34.504 120.655 34.41 120.602 34.311C120.536 34.188 120.473 34.062 120.401 33.944C120.351 33.863 120.294 33.789 120.241 33.71C120.156 33.582 120.074 33.452 119.981 33.331C119.933 33.267 119.878 33.21 119.828 33.147C119.724 33.018 119.621 32.889 119.508 32.768C119.463 32.719 119.412 32.675 119.365 32.627C119.241 32.501 119.118 32.375 118.986 32.258C118.948 32.225 118.907 32.196 118.869 32.164C118.723 32.039 118.575 31.916 118.42 31.804C118.398 31.788 118.374 31.776 118.352 31.759C118.178 31.635 118 31.517 117.816 31.408C117.802 31.4 117.787 31.393 117.773 31.386C116.749 30.791 115.589 30.44 114.389 30.377C114.378 30.377 114.368 30.378 114.357 30.377C114.125 30.366 113.892 30.365 113.657 30.376C113.614 30.378 113.571 30.386 113.528 30.389C113.326 30.402 113.124 30.418 112.922 30.448C112.825 30.463 112.729 30.487 112.632 30.506C112.484 30.533 112.335 30.558 112.187 30.595C112.019 30.637 111.852 30.694 111.685 30.747C111.611 30.771 111.536 30.789 111.462 30.815L111.452 30.819C111.449 30.82 111.445 30.821 111.441 30.822C111.438 30.823 111.435 30.825 111.432 30.826L22.245 62.994L17.114 48.898L106.29 16.734C106.292 16.733 106.293 16.732 106.295 16.732C106.3 16.73 106.305 16.729 106.311 16.727C117.971 12.484 130.906 18.516 135.149 30.175L242.183 324.252C239.753 324.82 237.348 325.525 234.979 326.388C232.592 327.257 230.302 328.272 228.09 329.392L121.057 35.305ZM299.407 405.192C294.045 416.691 284.527 425.413 272.605 429.752C267.355 431.663 261.89 432.632 256.364 432.632C236.471 432.632 218.532 420.066 211.726 401.363C202.768 376.753 215.503 349.442 240.114 340.483C245.364 338.572 250.828 337.603 256.355 337.603C276.247 337.603 294.187 350.169 300.993 368.873C305.333 380.795 304.77 393.694 299.407 405.192ZM317.221 370.95C316.651 368.526 315.953 366.12 315.088 363.744C314.224 361.369 313.219 359.071 312.093 356.853L489.755 292.247L494.886 306.343L317.221 370.95Z" fill="#1B5EBD"></path>
	</symbol>

	<!-- service-extra-icon-1-->
	<symbol id="service-extra-icon-1" viewBox="0 0 512 512">
		<line style="stroke-linecap:round;fill:none;stroke:#2b5ea9;stroke-miterlimit:10;stroke-width:10px;" x1="327.29" y1="322.35" x2="224.91" y2="420"></line> 
		<line style="stroke-linecap:round;fill:none;stroke:#2b5ea9;stroke-miterlimit:10;stroke-width:10px;" x1="285.38" y1="40.73" x2="183" y2="138.38"></line> 
		<path style="fill:none;stroke:#2b5ea9;stroke-miterlimit:10;stroke-width:10px;" d="M463,59V425.52a23.33,23.33,0,0,1-23.32,23.33H72.33A23.33,23.33,0,0,1,49,425.52V59A23.33,23.33,0,0,1,72.33,35.67H439.68A23.32,23.32,0,0,1,463,59Z"></path> 
		<line style="fill:none;stroke:#2b5ea9;stroke-miterlimit:10;stroke-width:10px;" x1="462.6" y1="420" x2="49.41" y2="420"></line> 
		<line style="fill:none;stroke:#2b5ea9;stroke-miterlimit:10;stroke-width:10px;" x1="49" y1="425.52" x2="49" y2="58.99"></line> 
		<line style="fill:none;stroke:#2b5ea9;stroke-miterlimit:10;stroke-width:10px;" x1="183" y1="420" x2="183" y2="35.67"></line> 
		<line style="fill:none;stroke:#2b5ea9;stroke-miterlimit:10;stroke-width:10px;" x1="328.6" y1="420" x2="328.6" y2="35.67"></line> 
		<polyline style="fill:none;stroke:#2b5ea9;stroke-miterlimit:10;stroke-width:10px;" points="462.6 54.69 462.6 420 462.6 429.82"></polyline> 
		<line style="stroke-linecap:round;fill:none;stroke:#2b5ea9;stroke-miterlimit:10;stroke-width:10px;" x1="444.56" y1="188.92" x2="444.56" y2="228.92"></line> <line style="stroke-linecap:round;fill:none;stroke:#2b5ea9;stroke-miterlimit:10;stroke-width:10px;" x1="66.31" y1="188.92" x2="66.31" y2="228.92"></line> <line style="stroke-linecap:round;fill:none;stroke:#2b5ea9;stroke-miterlimit:10;stroke-width:10px;" x1="183" y1="113.65" x2="266.82" y2="35.67"></line> 
		<line style="stroke-linecap:round;fill:none;stroke:#2b5ea9;stroke-miterlimit:10;stroke-width:10px;" x1="201.41" y1="417.13" x2="327.29" y2="300.03"></line> <line style="stroke-linecap:round;fill:none;stroke:#2b5ea9;stroke-miterlimit:10;stroke-width:10px;" x1="183" y1="314.55" x2="328.6" y2="179.11"></line>
	</symbol>

	<!-- service-extra-icon-2-->
	<symbol id="service-extra-icon-2" viewBox="0 0 512 512">
		<path style="fill:none;stroke-miterlimit:10;stroke-width:10px;stroke:#2b5ea9;" d="M466.83,163.8c-2,3.18-11.46,13.58-22.82,13.58H78.25C65.43,177.38,55,166.32,55,162.54V71C55,67.27,65.43,56.2,78.25,56.2H444c11.36,0,20.82,10.41,22.82,13.58C467.09,70.19,467.09,163.39,466.83,163.8Z"></path> 
		<path style="fill:none;stroke-miterlimit:10;stroke-width:10px;stroke:#2b5ea9;" d="M466.93,456.66c-2,3.83-11.46,12.72-22.82,12.72H78.35c-12.82,0-23.23-9.69-23.23-14.24V337.62c0-4.55,10.41-14.24,23.23-14.24H444.11c11.36,0,20.82,8.9,22.82,12.72C467.19,336.6,467.19,456.17,466.93,456.66Z"></path> 
		<line style="fill:none;stroke-miterlimit:10;stroke-width:10px;stroke:#2b5ea9;" x1="257.15" y1="177.38" x2="256.32" y2="56.2"></line> 
		<line style="fill:none;stroke-miterlimit:10;stroke-width:10px;stroke:#2b5ea9;" x1="259.13" y1="469.38" x2="258.14" y2="323.38"></line> 
		<line style="fill:none;stroke-miterlimit:10;stroke-width:10px;stroke:#2b5ea9;stroke-linecap:round;" x1="323.06" y1="116.79" x2="399.06" y2="116.79"></line> 
		<line style="fill:none;stroke-miterlimit:10;stroke-width:10px;stroke:#2b5ea9;stroke-linecap:round;" x1="121.18" y1="116.79" x2="197.18" y2="116.79"></line> 
		<rect style="fill:none;stroke-miterlimit:10;stroke-width:10px;stroke:#2b5ea9;" x="307.04" y="263.96" width="116.12" height="59.42" rx="7.02"></rect> 
		<line style="fill:none;stroke-miterlimit:10;stroke-width:10px;stroke:#2b5ea9;" x1="307.04" y1="293.95" x2="423.17" y2="293.4"></line> 
		<line style="fill:none;stroke-miterlimit:10;stroke-width:10px;stroke:#2b5ea9;" x1="307.04" y1="278.25" x2="423.17" y2="277.7"></line> 
		<line style="fill:none;stroke-miterlimit:10;stroke-width:10px;stroke:#2b5ea9;" x1="307.19" y1="310.19" x2="423.31" y2="309.64"></line> 
		<path style="fill:none;stroke-miterlimit:10;stroke-width:10px;stroke:#2b5ea9;stroke-linecap:round;" d="M177.55,272.26a18.07,18.07,0,0,1,36.14,0"></path> 
		<line style="fill:none;stroke-miterlimit:10;stroke-width:10px;stroke:#2b5ea9;stroke-linecap:round;" x1="213.7" y1="323.38" x2="213.7" y2="272.26"></line> 
		<rect style="fill:none;stroke-miterlimit:10;stroke-width:10px;stroke:#2c5ea8;" x="115.38" y="297.82" width="74.03" height="25.56" rx="9.71"></rect> 
		<line style="fill:none;stroke-miterlimit:10;stroke-width:10px;stroke:#2b5ea9;stroke-linecap:round;" x1="288.72" y1="377.38" x2="288.72" y2="415.38"></line> 
		<line style="fill:none;stroke-miterlimit:10;stroke-width:10px;stroke:#2b5ea9;stroke-linecap:round;" x1="228.64" y1="377.38" x2="228.64" y2="415.38"></line>
	</symbol>

	<!-- service-extra-icon-3-->
	<symbol id="service-extra-icon-3" viewBox="0 0 512 512">
		<path xmlns="http://www.w3.org/2000/svg" fill="none" stroke="#2b5ea9" stroke-miterlimit="10" stroke-width="10" d="M463.9,341.41c-2,5.77-11.51,13.13-22.92,13.13H73.63c-12.88,0-23.33-8.56-23.33-15.42V150c0-6.86,10.45-15.42,23.33-15.42H441c11.41,0,20.91,8.36,22.92,14.13C464.16,149.41,464.16,340.67,463.9,341.41Z"/><rect xmlns="http://www.w3.org/2000/svg" width="350" height="156" x="82.29" y="166.54" fill="none" stroke="#2b5ea9" stroke-miterlimit="10" stroke-width="10" rx="29.5"/><path xmlns="http://www.w3.org/2000/svg" fill="none" stroke="#2b5ea9" stroke-miterlimit="10" stroke-width="10" d="M221.78,134.54l12.54-66.41c0-16.67-12.21-30.18-27.27-30.18H99.59C84.53,38,72.32,51.46,72.32,68.13l12.92,67.71"/><path xmlns="http://www.w3.org/2000/svg" fill="none" stroke="#2b5ea9" stroke-miterlimit="10" stroke-width="10" d="M293,134.54,280.27,68.13c0-16.67,12.21-30.18,27.27-30.18H415c15.06,0,27.26,13.51,27.26,30.18l-12.79,67.74"/><path xmlns="http://www.w3.org/2000/svg" fill="none" stroke="#2b5ea9" stroke-miterlimit="10" stroke-width="10" d="M85.24,353.24,72.32,421c0,16.66,12.21,30.17,27.27,30.17H207.05c15.06,0,27.27-13.51,27.27-30.17l-12.54-66.42"/><path xmlns="http://www.w3.org/2000/svg" fill="none" stroke="#2b5ea9" stroke-miterlimit="10" stroke-width="10" d="M293,354.54,280.27,421c0,16.66,12.21,30.17,27.27,30.17H415c15.06,0,27.26-13.51,27.26-30.17l-12.79-67.75"/><path xmlns="http://www.w3.org/2000/svg" fill="none" stroke="#2b5ea9" stroke-miterlimit="10" stroke-width="10" d="M153.32 134.54L153.32 37.95"/><path xmlns="http://www.w3.org/2000/svg" fill="none" stroke="#2b5ea9" stroke-miterlimit="10" stroke-width="10" d="M153.32 451.13L153.32 354.54"/><path xmlns="http://www.w3.org/2000/svg" fill="none" stroke="#2b5ea9" stroke-miterlimit="10" stroke-width="10" d="M361.27 134.54L361.27 37.95"/><path xmlns="http://www.w3.org/2000/svg" fill="none" stroke="#2b5ea9" stroke-miterlimit="10" stroke-width="10" d="M361.27 451.13L361.27 354.54"/> 
	</symbol>

	<!-- service-extra-icon-4-->
	<symbol id="service-extra-icon-4" viewBox="0 0 512 512">
		<path xmlns="http://www.w3.org/2000/svg" fill="none" stroke="#2b5ea9" stroke-miterlimit="10" stroke-width="10" d="M463,61.27V427.8a23.33,23.33,0,0,1-23.32,23.33H72.33A23.33,23.33,0,0,1,49,427.8V61.27A23.33,23.33,0,0,1,72.33,38H439.68A23.32,23.32,0,0,1,463,61.27Z"/><rect xmlns="http://www.w3.org/2000/svg" width="350" height="349.18" x="81" y="69.95" fill="none" stroke="#2b5ea9" stroke-miterlimit="10" stroke-width="10" rx="22.69"/><path xmlns="http://www.w3.org/2000/svg" fill="none" stroke="#2b5ea9" stroke-linecap="round" stroke-miterlimit="10" stroke-width="10" d="M103.11 175.46L183.11 96.27"/><path xmlns="http://www.w3.org/2000/svg" fill="none" stroke="#2b5ea9" stroke-linecap="round" stroke-miterlimit="10" stroke-width="10" d="M317.32 392.8L397.32 313.61"/><path xmlns="http://www.w3.org/2000/svg" fill="none" stroke="#2b5ea9" stroke-linecap="round" stroke-miterlimit="10" stroke-width="10" d="M229.87 295.6L309.87 216.4"/><path xmlns="http://www.w3.org/2000/svg" fill="none" stroke="#2b5ea9" stroke-linecap="round" stroke-miterlimit="10" stroke-width="10" d="M201.71 267.15L281.71 187.95"/><path xmlns="http://www.w3.org/2000/svg" fill="none" stroke="#2b5ea9" stroke-linecap="round" stroke-miterlimit="10" stroke-width="10" d="M338.93 155.32L173.63 327.72"/>
	</symbol>


<!-- ===== 5. QUOTE BLOCK ===== -->

	<!-- quote-icon -->
	<symbol id="quote-icon" viewBox="0 0 23.89 18.62">
		<path xmlns="http://www.w3.org/2000/svg" fill="#1b5ebd" d="M.14,16.7C5.41,12.14,4.55,6.7,3,4.7A5.3,5.3,0,0,1,8.18,0a4.45,4.45,0,0,1,4.59,4.3,3.23,3.23,0,0,1,0,.44c0,5.12-4.7,11.46-11.46,13.81C.57,18.83-.36,18,.14,16.7Z"/><path xmlns="http://www.w3.org/2000/svg" fill="#1b5ebd" d="M11.21,16.7c5.27-4.56,4.42-10,2.85-12A5.31,5.31,0,0,1,19.24,0a4.45,4.45,0,0,1,4.64,4.26,2.9,2.9,0,0,1,0,.51c0,5.12-4.7,11.46-11.45,13.81C11.64,18.83,10.71,18,11.21,16.7Z"/>
	</symbol>


<!-- ===== 8. QUESTIONS SECTION ===== -->

	<!-- questions-icon -->
	<symbol id="questions-icon" viewBox="0 0 100 100">
		<rect x="27.5" y="4.1" style="fill: none;stroke: #0260e8;stroke-width: 5;stroke-linecap: round;stroke-linejoin: round;stroke-miterlimit: 10;" width="56.5" height="73.5"></rect>
		<line style="fill: none;stroke: #0260e8;stroke-width: 5;stroke-linecap: round;stroke-linejoin: round;stroke-miterlimit: 10;" x1="41.5" y1="22.1" x2="70.6" y2="22.1"></line>
		<line style="fill: none;stroke: #0260e8;stroke-width: 5;stroke-linecap: round;stroke-linejoin: round;stroke-miterlimit: 10;" x1="41.5" y1="38.8" x2="70.6" y2="38.8"></line>
		<line style="fill: none;stroke: #0260e8;stroke-width: 5;stroke-linecap: round;stroke-linejoin: round;stroke-miterlimit: 10;" x1="41.5" y1="55.5" x2="70.6" y2="55.5"></line>
		<polyline style="fill: none;stroke: #0260e8;stroke-width: 5;stroke-linecap: round;stroke-linejoin: round;stroke-miterlimit: 10;" points="66.4,77.6 66.4,95.6 9.8,95.6 9.8,22.1 27.5,22.1"></polyline>
	</symbol>






</svg>
